<svg id="Layer_1" data-name="Layer 1" xmlns="http://www.w3.org/2000/svg" viewBox="0 0 44.6742 44.6742">
  <defs>
    <style>
      .cls-1 {
        fill: #0e2653;
      }
    </style>
  </defs>
  <title>Add courses_v3</title>
  <g>
    <path class="cls-1" d="M12.88,30.2975A16.1472,16.1472,0,0,1,29.01,14.1686c.4517,0,.8956.0312,1.3379.0679V6.4655a.9993.9993,0,0,0-1-1H4.1265A1.5838,1.5838,0,0,1,2.9956,4.99a1.5591,1.5591,0,0,1-.4609-1.1084A1.5932,1.5932,0,0,1,4.1265,2.29H29.3481a1,1,0,1,0,0-2H4.1265A3.5959,3.5959,0,0,0,.5347,3.8815V37.88A2.3383,2.3383,0,0,0,2.87,40.2155H16.3169A16.0336,16.0336,0,0,1,12.88,30.2975Z"/>
    <path class="cls-1" d="M29.01,16.0582A14.2393,14.2393,0,1,0,43.25,30.2975,14.2554,14.2554,0,0,0,29.01,16.0582ZM41.25,30.2975A12.2393,12.2393,0,1,1,29.01,18.0582,12.2527,12.2527,0,0,1,41.25,30.2975Z"/>
    <path class="cls-1" d="M34.0535,28.9337H30.5684V25.4489a1.5578,1.5578,0,1,0-3.1155,0v3.4848H23.9668a1.5579,1.5579,0,0,0,0,3.1157h3.4861v3.4859a1.5578,1.5578,0,1,0,3.1155,0V32.0494h3.4851a1.5579,1.5579,0,0,0,0-3.1157Z"/>
  </g>
</svg>
