<svg id="Layer_1" data-name="Layer 1" xmlns="http://www.w3.org/2000/svg" viewBox="0 0 44.6742 44.6742">
  <defs>
    <style>
      .cls-1 {
        fill: #0e2653;
      }
    </style>
  </defs>
  <title>Add to Cart_v3</title>
  <g>
    <path class="cls-1" d="M44.5261,10.8155,41.3518,30.51a1.8931,1.8931,0,0,1-1.86,1.578H13.4483a1.8777,1.8777,0,0,1-1.86-1.5686L7.494,6.8145a1.4027,1.4027,0,0,0-1.39-1.1739H1.962A1.8816,1.8816,0,0,1,.1119,3.443a1.9615,1.9615,0,0,1,1.963-1.5592H6.104a5.1774,5.1774,0,0,1,5.1,4.2922l.338,1.9818H42.4129A2.0813,2.0813,0,0,1,44.5261,10.8155Z"/>
    <g>
      <path class="cls-1" d="M37.0688,38.8834a3.9023,3.9023,0,1,1-3.8976-3.8977A3.9079,3.9079,0,0,1,37.0688,38.8834Z"/>
      <path class="cls-1" d="M24.4461,38.8834a3.9024,3.9024,0,1,1-3.8975-3.8977A3.908,3.908,0,0,1,24.4461,38.8834Z"/>
    </g>
  </g>
</svg>
