<svg id="Layer_1" data-name="Layer 1" xmlns="http://www.w3.org/2000/svg" viewBox="0 0 44.6742 44.6742">
  <defs>
    <style>
      .cls-1 {
        fill: #0e2653;
      }
    </style>
  </defs>
  <title>Advanced Grammar_v3</title>
  <g>
    <path class="cls-1" d="M30.5055,29.8827V16.0885a.4306.4306,0,0,0-.4307-.4306H17.004a.43.43,0,0,0-.43.4306v4.8262a.43.43,0,0,0,.43.4307h6.6692a.4308.4308,0,0,1,.4307.4306v4.25a.4436.4436,0,0,1-.2134.3789,12.5818,12.5818,0,0,1-6.58,1.7807,9.965,9.965,0,0,1-5.4-1.4619,9.5331,9.5331,0,0,1-3.5582-3.9377,12.4022,12.4022,0,0,1-1.22-5.562,13.1388,13.1388,0,0,1,.7715-4.5945A9.7031,9.7031,0,0,1,10.0223,9.164a9.5436,9.5436,0,0,1,3.1426-2.1423,9.8342,9.8342,0,0,1,3.8694-.76A11.9166,11.9166,0,0,1,25.37,9.4784a.4271.4271,0,0,0,.5664.0162L29.9977,6.05a.437.437,0,0,0,.0385-.6294,16.3925,16.3925,0,0,0-5.7485-3.9365A18.8625,18.8625,0,0,0,17.0343.0214a18.2241,18.2241,0,0,0-7.0237,1.3128A14.8154,14.8154,0,0,0,4.7027,4.9494a16.3222,16.3222,0,0,0-3.3046,5.458A19.3781,19.3781,0,0,0,.223,17.2236a18.9255,18.9255,0,0,0,1.3128,7.1733A14.8159,14.8159,0,0,0,5.152,29.7738a16.1286,16.1286,0,0,0,5.4223,3.3047A19.1414,19.1414,0,0,0,17.31,34.2416a23.9666,23.9666,0,0,0,7.3345-1.1284A17.9777,17.9777,0,0,0,30.34,30.2284.4382.4382,0,0,0,30.5055,29.8827Z"/>
    <path class="cls-1" d="M44.4274,34.4242a.4752.4752,0,0,0-.3912-.3242L38.71,33.3515l-2.3557-4.9258a.4928.4928,0,0,0-.8582,0l-2.3557,4.9258L27.8143,34.1a.4744.4744,0,0,0-.3908.3242.4636.4636,0,0,0,.1237.4864l3.8435,3.7241-.92,5.46a.4774.4774,0,0,0,.4673.5579.4809.4809,0,0,0,.229-.0572l4.7588-2.6035,4.7588,2.6035a.4741.4741,0,0,0,.5054-.0334.4684.4684,0,0,0,.1906-.4673l-.92-5.46,3.8432-3.7241A.4648.4648,0,0,0,44.4274,34.4242Z"/>
  </g>
</svg>
