<svg id="Layer_1" data-name="Layer 1" xmlns="http://www.w3.org/2000/svg" viewBox="0 0 44.6742 44.6742">
  <defs>
    <style>
      .cls-1 {
        fill: none;
      }

      .cls-2 {
        fill: #0e2653;
      }
    </style>
  </defs>
  <title>Advanced Pronunciation_v3</title>
  <g>
    <path class="cls-1" d="M31.3088,7.476c-3.5357,0-4.763,2.583-5.12,5.1018H36.2729C35.9067,9.1889,34.23,7.476,31.3088,7.476Z"/>
    <path class="cls-1" d="M8.5571,22.1584c0,1.2182.458,3.2607,3.5356,3.2607,3.7368,0,5.303-1.9875,5.3672-6.842H14.4831C8.5571,18.5771,8.5571,21.1784,8.5571,22.1584Z"/>
    <path class="cls-2" d="M44.5439,18.0551c.0547-.44.1006-2.0977.1006-2.4089C44.6445,6.0746,39.8176.5793,31.4.5793A13.1665,13.1665,0,0,0,22.8364,3.4c-2.0059-1.896-5.0286-2.821-9.1958-2.821C3.4643.5793,1.4494,6.78,1.1469,10.4711a.9306.9306,0,0,0,.2383.6963.9434.9434,0,0,0,.6777.293H8.4836a.911.911,0,0,0,.907-.7969c.2929-2.1982,1.0625-3.4712,4.1123-3.4712,3.0959,0,3.7187,1.447,3.7187,3.7734V12.34h-2.83C1.4311,12.34.03,19.5756.03,22.6806c0,4.4057,2.4912,9.2507,9.489,9.6448h.055a.8369.8369,0,0,0,.3755-.0826,2.1467,2.1467,0,0,1-.3755-.8335,2.0617,2.0617,0,0,1,.0456-.9433,1.98,1.98,0,0,1,1.6214-1.3923l6.4572-.9068,2.8577-5.99a1.9832,1.9832,0,0,1,1.7769-1.0991,1.9622,1.9622,0,0,1,1.7954,1.1633l2.8391,5.926,6.4392.9068a1.9724,1.9724,0,0,1,1.6118,1.31,1.715,1.715,0,0,1,.11.6045,1.8873,1.8873,0,0,1-.2014.8884.8933.8933,0,0,0,.44,0c4.3874-1.1907,7.4555-4.3965,8.8662-9.2691a.9072.9072,0,0,0-.1465-.8061.9285.9285,0,0,0-.7327-.3665H36.8408a.9168.9168,0,0,0-.8609.6141,4.4013,4.4013,0,0,1-4.6255,3.2238,4.7369,4.7369,0,0,1-3.5078-1.3371,7.7453,7.7453,0,0,1-1.841-5.0745H43.6372A.9117.9117,0,0,0,44.5439,18.0551Zm-32.4512,7.364c-3.0776,0-3.5356-2.0425-3.5356-3.2607,0-.98,0-3.5813,5.926-3.5813H17.46C17.3957,23.4316,15.83,25.4191,12.0927,25.4191Zm14.096-12.8413c.3571-2.5188,1.5844-5.1018,5.12-5.1018,2.9216,0,4.5979,1.7129,4.9641,5.1018Z"/>
    <path class="cls-2" d="M25.8222,29.8522a.1559.1559,0,0,1-.1191-.0732l-3.2422-6.7779a.1266.1266,0,0,0-.1284-.0915.145.145,0,0,0-.1375.0915l-2.6743,5.5962-.5681,1.1817c-.0088.0459-.0547.0732-.1189.0732l-2.354.33-4.9827.705a.146.146,0,0,0-.0732.2566l.2473.2381,2.0061,1.9511,3.0315,2.94a.1338.1338,0,0,1,.0366.1374l-1.2546,7.5105a.1378.1378,0,0,0,.1372.1741.2135.2135,0,0,0,.0735-.0183l6.5578-3.59a.1708.1708,0,0,1,.0733-.0186.2109.2109,0,0,1,.0732.0186l6.5581,3.59a.1682.1682,0,0,0,.064.0183.15.15,0,0,0,.156-.1741l-1.2732-7.51a.19.19,0,0,1,.0456-.1374l2.116-2.0425,2.9309-2.8486.2473-.2381a.148.148,0,0,0-.0915-.2566Z"/>
  </g>
</svg>
