<svg id="Layer_1" data-name="Layer 1" xmlns="http://www.w3.org/2000/svg" viewBox="0 0 44.6742 44.6742">
  <defs>
    <style>
      .cls-1 {
        fill: #0e2653;
      }
    </style>
  </defs>
  <title>Announcements_v3</title>
  <g>
    <path class="cls-1" d="M15.7153,11.2643H6.62A6.4117,6.4117,0,0,0,.22,17.6735v5.2509a6.3555,6.3555,0,0,0,1.7817,4.4283l3.52,12.853a2.0993,2.0993,0,0,0,4.127-.543V29.3336h6.0664Z"/>
    <path class="cls-1" d="M31.4077,2.9293a1.6062,1.6062,0,0,0-1.4883.5645,25.7246,25.7246,0,0,1-11.9565,7.7573V29.3468a25.64,25.64,0,0,1,11.9565,7.7573,1.6194,1.6194,0,0,0,1.2481.5811,1.6709,1.6709,0,0,0,1.5224-.9883,38.553,38.553,0,0,0,.001-32.8047A1.6433,1.6433,0,0,0,31.4077,2.9293Z"/>
    <path class="cls-1" d="M43.4155,12.7438a1,1,0,0,0-1.92.5625,26.9035,26.9035,0,0,1,.2861,14.02,1.0012,1.0012,0,0,0,.7285,1.2129,1.0431,1.0431,0,0,0,.2432.0293,1.0016,1.0016,0,0,0,.97-.7578,28.926,28.926,0,0,0-.3076-15.0664Z"/>
  </g>
</svg>
