<svg id="Layer_1" data-name="Layer 1" xmlns="http://www.w3.org/2000/svg" viewBox="0 0 44.6742 44.6742">
  <defs>
    <style>
      .cls-1 {
        fill: #0e2653;
      }
    </style>
  </defs>
  <title>Assessments_v3</title>
  <g>
    <path class="cls-1" d="M16.043,23.0776a1.1266,1.1266,0,0,0,.1831.5486L19.51,28.6623a.7288.7288,0,0,0,1.2229-.0095l3.1585-5.0266a1.1855,1.1855,0,0,0,.1733-.5486V23.02H16.043Z"/>
    <path class="cls-1" d="M17.0362,20.7446h6.0351a.9971.9971,0,0,0,.9971-.9973L24.0633,1.66a.9973.9973,0,0,0-.9974-.9968H17.0413a.9972.9972,0,0,0-.9971.9968l-.0051,18.0877A.9969.9969,0,0,0,17.0362,20.7446Z"/>
    <path class="cls-1" d="M32.3452,28.7214,29.5811,26.33a.8565.8565,0,0,0-.6721-.2107.7733.7733,0,0,0-.5428.2942l-9.1355,10.49-3.2685-2.79a1.0935,1.0935,0,0,0-.6577-.1951,1.0273,1.0273,0,0,0-.59.3376L12.2012,36.873a.764.764,0,0,0-.1936.6274.8512.8512,0,0,0,.291.6182l6.4385,5.5259.03.0015.2475.2231a.8375.8375,0,0,0,.4634.1414.8524.8524,0,0,0,.71-.3025L32.4873,29.9843a.842.842,0,0,0,.1792-.6433l.0008-.0151A.86.86,0,0,0,32.3452,28.7214Z"/>
  </g>
</svg>
