<svg id="Layer_1" data-name="Layer 1" xmlns="http://www.w3.org/2000/svg" viewBox="0 0 44.6742 44.6742">
  <defs>
    <style>
      .cls-1 {
        fill: #0e2653;
      }
    </style>
  </defs>
  <title>Bronze_v3</title>
  <path class="cls-1" d="M44.216,18.4114,34.1793,28.1365l2.4032,14.2579a1.2242,1.2242,0,0,1-.4979,1.22,1.2392,1.2392,0,0,1-1.32.0872L22.3371,36.903,9.91,43.7019a1.2515,1.2515,0,0,1-.5977.15,1.247,1.247,0,0,1-1.22-1.4571l2.4032-14.2579L.4583,18.4114a1.2119,1.2119,0,0,1-.3238-1.27,1.2393,1.2393,0,0,1,1.0212-.847L15.0648,14.34,21.2162,1.4761a1.2874,1.2874,0,0,1,2.2415,0L29.6094,14.34l13.9092,1.9548a1.2394,1.2394,0,0,1,1.0212.847A1.2129,1.2129,0,0,1,44.216,18.4114Z"/>
</svg>
