<svg id="Layer_1" data-name="Layer 1" xmlns="http://www.w3.org/2000/svg" viewBox="0 0 44.6742 44.6742">
  <defs>
    <style>
      .cls-1 {
        fill: #0e2653;
      }
    </style>
  </defs>
  <title>Calendar_v3</title>
  <g>
    <path class="cls-1" d="M44.5066,4.9215a.9664.9664,0,0,0-.97-.97H34.3987V.7091H31.49V3.9518H13.4311V.4691H10.522V3.9518H1.3345a.9725.9725,0,0,0-.97.97V13.619H44.5066Z"/>
    <path class="cls-1" d="M.3647,43.2355a.9726.9726,0,0,0,.97.97H33.4614V34.3141A1.4587,1.4587,0,0,1,34.916,32.86l9.5906-.0195V16.3317H.3647ZM31.2305,21.2477a.1246.1246,0,0,1,.125-.125h5.9316a.1247.1247,0,0,1,.125.125V27.18a.1247.1247,0,0,1-.125.125H31.3555a.1246.1246,0,0,1-.125-.125Zm-11.9629,0a.1246.1246,0,0,1,.125-.125h5.9326a.1247.1247,0,0,1,.125.125V27.18a.1247.1247,0,0,1-.125.125H19.3926a.1246.1246,0,0,1-.125-.125Zm0,10.2793a.1245.1245,0,0,1,.125-.125h5.9326a.1246.1246,0,0,1,.125.125V37.46a.1247.1247,0,0,1-.125.125H19.3926a.1246.1246,0,0,1-.125-.125ZM7.3047,21.2477a.1246.1246,0,0,1,.125-.125h5.9326a.1247.1247,0,0,1,.125.125V27.18a.1247.1247,0,0,1-.125.125H7.43a.1246.1246,0,0,1-.125-.125Zm0,10.2793a.1245.1245,0,0,1,.125-.125h5.9326a.1246.1246,0,0,1,.125.125V37.46a.1247.1247,0,0,1-.125.125H7.43a.1246.1246,0,0,1-.125-.125Z"/>
    <path class="cls-1" d="M35.75,35.9332v8.272h.126l8.6306-8.64v-.1167H36.2251A.4844.4844,0,0,0,35.75,35.9332Z"/>
  </g>
</svg>
