<svg id="Layer_1" data-name="Layer 1" xmlns="http://www.w3.org/2000/svg" viewBox="0 0 44.6742 44.6742">
  <defs>
    <style>
      .cls-1 {
        fill: #0e2653;
      }
    </style>
  </defs>
  <title>Checkout_v3</title>
  <g>
    <path class="cls-1" d="M44.5427,10.8154,41.3683,30.51a1.8931,1.8931,0,0,1-1.86,1.5781H13.4648a1.8775,1.8775,0,0,1-1.86-1.5687L7.51,6.8144A1.4027,1.4027,0,0,0,6.12,5.64H1.9784a1.8814,1.8814,0,0,1-1.85-2.1976A1.9612,1.9612,0,0,1,2.091,1.8836H6.12a5.1776,5.1776,0,0,1,5.1,4.2922l.3382,1.9818H42.3357a2.7457,2.7457,0,0,1,1.7.817A2.2153,2.2153,0,0,1,44.5427,10.8154Z"/>
    <g>
      <path class="cls-1" d="M37.0852,38.8836a3.9023,3.9023,0,1,1-3.8976-3.8978A3.9079,3.9079,0,0,1,37.0852,38.8836Z"/>
      <path class="cls-1" d="M24.4624,38.8836a3.9024,3.9024,0,1,1-3.8975-3.8978A3.908,3.908,0,0,1,24.4624,38.8836Z"/>
    </g>
  </g>
</svg>
