<svg id="Layer_1" data-name="Layer 1" xmlns="http://www.w3.org/2000/svg" viewBox="0 0 44.6742 44.6742">
  <defs>
    <style>
      .cls-1 {
        fill: #0e2653;
      }
    </style>
  </defs>
  <title>Courses_v3</title>
  <g>
    <path class="cls-1" d="M32.9642,35.1142a2.3191,2.3191,0,0,1-.5662.4172,2.2827,2.2827,0,0,1-1.043.2583,2.2165,2.2165,0,0,1-.5659-.08A2.2846,2.2846,0,0,1,29.16,34.1508L24.532,18.3893a2.2805,2.2805,0,0,1,2.1851-2.93,2.3532,2.3532,0,0,1,.6453.0894l5.0356,1.48.9434.2781a.6575.6575,0,0,0,.05-.2781V2.5483A2.5011,2.5011,0,0,0,30.8983.0551H2.6724A2.5011,2.5011,0,0,0,.18,2.5483V40.7157a3.91,3.91,0,0,0,3.9031,3.9031H32.398a.9932.9932,0,1,0,0-1.9863H4.0826a1.9244,1.9244,0,0,1-1.9168-1.9168,1.7853,1.7853,0,0,1,.149-.7248,1.0531,1.0531,0,0,1,.1789-.3279,1.66,1.66,0,0,1,.2383-.2881,1.894,1.894,0,0,1,1.3506-.5659H32.398a.99.99,0,0,0,.9932-.9932V35.5314a.9266.9266,0,0,0-.2285-.6159ZM8.7205,7.2558H24.86v5.81H8.7205Z"/>
    <polygon class="cls-1" points="39.38 25.471 42.479 22.372 33.391 19.7 32.398 19.412 26.717 17.744 31.355 33.505 32.398 32.462 33.391 31.469 34.454 30.397 39.569 35.521 44.495 30.595 39.38 25.471"/>
  </g>
</svg>
