<svg id="Layer_1" data-name="Layer 1" xmlns="http://www.w3.org/2000/svg" viewBox="0 0 44.6742 44.6742">
  <defs>
    <style>
      .cls-1 {
        fill: #0e2653;
      }
    </style>
  </defs>
  <title>Current Course_v3</title>
  <g>
    <path class="cls-1" d="M12.1165,30.1041A16.3161,16.3161,0,0,1,32.5081,14.2394V6.5582a1,1,0,0,0-1-1H5.1653a1.7042,1.7042,0,0,1-1.2129-.5088A1.6746,1.6746,0,0,1,3.4573,3.86a1.71,1.71,0,0,1,1.708-1.707H31.5081a1,1,0,0,0,0-2H5.1653A3.7115,3.7115,0,0,0,1.4573,3.86V39.37a2.3977,2.3977,0,0,0,2.3955,2.3955H17.0042A16.3407,16.3407,0,0,1,12.1165,30.1041Z"/>
    <path class="cls-1" d="M28.4974,15.6305A14.4756,14.4756,0,1,0,42.973,30.1061,14.4925,14.4925,0,0,0,28.4974,15.6305ZM16.0218,30.1061A12.4756,12.4756,0,1,1,28.4974,42.5817,12.49,12.49,0,0,1,16.0218,30.1061Z"/>
    <path class="cls-1" d="M27.5765,31.4059l6.1621,3.5449a1.5006,1.5006,0,0,0,1.4961-2.6016l-5.41-3.1113v-5.7a1.5,1.5,0,0,0-3,0v6.5684A1.5,1.5,0,0,0,27.5765,31.4059Z"/>
  </g>
</svg>
