<svg id="Layer_1" data-name="Layer 1" xmlns="http://www.w3.org/2000/svg" viewBox="0 0 44.6742 44.6742">
  <defs>
    <style>
      .cls-1 {
        fill: none;
      }

      .cls-2 {
        fill: #0e2653;
      }
    </style>
  </defs>
  <title>Dashboard_v3_1</title>
  <g>
    <path class="cls-1" d="M22.3422,15.1779A15.3428,15.3428,0,0,0,7.0041,30.5162h12.58c.0481-.1035.085-.2109.1436-.3105a2.4788,2.4788,0,0,1,.3008-.4238l.0107-.0244A21.6852,21.6852,0,0,1,27.68,23.4528a.119.119,0,0,1,.1182.0048.1248.1248,0,0,1,.0615.1006,21.5049,21.5049,0,0,1-.7727,6.958H37.68A15.3426,15.3426,0,0,0,22.3422,15.1779Z"/>
    <path class="cls-1" d="M38.03,7.0709a1.3235,1.3235,0,1,0-1.3286-1.3286A1.33,1.33,0,0,0,38.03,7.0709Z"/>
    <path class="cls-1" d="M24.8041,7.0709a1.3235,1.3235,0,1,0,0-2.6469,1.3235,1.3235,0,0,0,0,2.6469Z"/>
    <path class="cls-1" d="M31.4174,7.0709a1.3235,1.3235,0,1,0-1.3186-1.3286A1.3228,1.3228,0,0,0,31.4174,7.0709Z"/>
    <path class="cls-2" d="M43.2941,1.1481H1.39A1.13,1.13,0,0,0,.257,2.2811V42.4137a1.1145,1.1145,0,0,0,1.1123,1.1126H43.2941a1.1279,1.1279,0,0,0,1.123-1.1333V2.2811A1.1278,1.1278,0,0,0,43.2941,1.1481ZM38.03,4.424a1.3235,1.3235,0,1,1-1.3286,1.3183A1.3208,1.3208,0,0,1,38.03,4.424ZM27.0873,30.5162a21.5049,21.5049,0,0,0,.7727-6.958.1248.1248,0,0,0-.0615-.1006.119.119,0,0,0-.1182-.0048,21.6852,21.6852,0,0,0-7.6416,6.3047l-.0107.0244a2.4788,2.4788,0,0,0-.3008.4238c-.0586.1-.0955.207-.1436.3105H7.0041a15.3381,15.3381,0,1,1,30.6762,0Zm4.33-26.0922a1.3235,1.3235,0,1,1-1.3186,1.3183A1.3141,1.3141,0,0,1,31.4174,4.424Zm-6.6133,0a1.3235,1.3235,0,1,1-1.3186,1.3183A1.3229,1.3229,0,0,1,24.8041,4.424Z"/>
  </g>
</svg>
