<svg id="Layer_1" data-name="Layer 1" xmlns="http://www.w3.org/2000/svg" viewBox="0 0 44.6742 44.6742">
  <defs>
    <style>
      .cls-1 {
        fill: none;
      }

      .cls-2 {
        fill: #0e2653;
      }
    </style>
  </defs>
  <title>Dashboard_v3</title>
  <g>
    <path class="cls-1" d="M37.5721,7.517a1.2849,1.2849,0,1,0-1.29-1.29A1.291,1.291,0,0,0,37.5721,7.517Z"/>
    <path class="cls-1" d="M22.3421,15.3871a14.8947,14.8947,0,0,0-14.89,14.89H19.3a3.4405,3.4405,0,0,1,.2314-.4927,2.4074,2.4074,0,0,1,.2969-.4092l.01-.0215a21.0827,21.0827,0,0,1,7.4795-6.0527.1292.1292,0,0,1,.1182.0059.1265.1265,0,0,1,.0605.1015,20.9168,20.9168,0,0,1-.8486,6.8687H37.232A14.8945,14.8945,0,0,0,22.3421,15.3871Z"/>
    <path class="cls-1" d="M24.732,7.517a1.2849,1.2849,0,1,0,0-2.57,1.2849,1.2849,0,0,0,0,2.57Z"/>
    <path class="cls-1" d="M31.1522,7.517a1.2849,1.2849,0,1,0-1.28-1.29A1.2843,1.2843,0,0,0,31.1522,7.517Z"/>
    <path class="cls-2" d="M42.682,1.767H2.0021a1.097,1.097,0,0,0-1.1,1.1v38.96a1.0818,1.0818,0,0,0,1.08,1.08h40.7a1.0947,1.0947,0,0,0,1.09-1.1V2.8671A1.0949,1.0949,0,0,0,42.682,1.767Zm-5.11,3.18a1.2849,1.2849,0,1,1-1.29,1.28A1.2824,1.2824,0,0,1,37.5721,4.9472Zm-10.9243,25.33a20.9168,20.9168,0,0,0,.8486-6.8687.1265.1265,0,0,0-.0605-.1015.1292.1292,0,0,0-.1182-.0059,21.0827,21.0827,0,0,0-7.4795,6.0527l-.01.0215a2.4074,2.4074,0,0,0-.2969.4092,3.4405,3.4405,0,0,0-.2314.4927H7.452a14.89,14.89,0,1,1,29.78,0Zm4.5044-25.33a1.2849,1.2849,0,1,1-1.28,1.28A1.2758,1.2758,0,0,1,31.1522,4.9472Zm-6.42,0a1.2849,1.2849,0,1,1-1.28,1.28A1.2844,1.2844,0,0,1,24.732,4.9472Z"/>
  </g>
</svg>
