<svg id="Layer_1" data-name="Layer 1" xmlns="http://www.w3.org/2000/svg" viewBox="0 0 44.6742 44.6742">
  <defs>
    <style>
      .cls-1 {
        fill: none;
      }

      .cls-2 {
        fill: #0e2653;
      }
    </style>
  </defs>
  <title>Document_v3</title>
  <g>
    <path class="cls-1" d="M31.3871,27.2119H13.537a1.9,1.9,0,0,0,0,3.8h17.85a1.9,1.9,0,0,0,0-3.8Z"/>
    <path class="cls-1" d="M24.567,37.2519a1.8862,1.8862,0,0,0-1.88-1.67h-9.17a1.897,1.897,0,0,0-1.9,1.89.0887.0887,0,0,0,.01.05.0187.0187,0,0,0,0,.03c-.01.01-.01.01-.01.02a1.2646,1.2646,0,0,0,.13.58.9074.9074,0,0,0,.13.26,1.8757,1.8757,0,0,0,1.64.96h9.17a1.8744,1.8744,0,0,0,1.63-.94c.01-.01.02-.01.02-.02a1.4427,1.4427,0,0,0,.26-.84.3389.3389,0,0,0-.01-.1A.7859.7859,0,0,0,24.567,37.2519Z"/>
    <path class="cls-1" d="M31.3771,18.7819h-17.86a1.8867,1.8867,0,0,0-1.87,1.61,1.2646,1.2646,0,0,0-.03.28,1.2812,1.2812,0,0,0,.04.34,1.8823,1.8823,0,0,0,1.86,1.56h17.86a1.88,1.88,0,0,0,1.77-1.23,1.3335,1.3335,0,0,0,.16-.65,1.4031,1.4031,0,0,0-.14-.61A1.8708,1.8708,0,0,0,31.3771,18.7819Z"/>
    <polygon class="cls-2" points="13.436 1.253 4.51 10.179 13.436 10.179 13.436 1.253"/>
    <path class="cls-2" d="M40.9171.4321a1.49,1.49,0,0,0-1.06-.43l-22.59.06v12.44a1.5043,1.5043,0,0,1-1.5,1.5H3.317v29.17a1.4981,1.4981,0,0,0,1.5,1.5h35.04a1.4981,1.4981,0,0,0,1.5-1.5V1.5019A1.54,1.54,0,0,0,40.9171.4321Zm-16.58,37.98c0,.01-.01.01-.02.02a1.8744,1.8744,0,0,1-1.63.94h-9.17a1.8757,1.8757,0,0,1-1.64-.96.9074.9074,0,0,1-.13-.26,1.2646,1.2646,0,0,1-.13-.58c0-.01,0-.01.01-.02a.0187.0187,0,0,1,0-.03.0887.0887,0,0,1-.01-.05,1.897,1.897,0,0,1,1.9-1.89h9.17a1.8862,1.8862,0,0,1,1.88,1.67.7859.7859,0,0,1,.02.22.3389.3389,0,0,1,.01.1A1.4427,1.4427,0,0,1,24.337,38.4121Zm7.05-7.4H13.537a1.9,1.9,0,0,1,0-3.8h17.85a1.9,1.9,0,0,1,0,3.8Zm1.76-9.67a1.88,1.88,0,0,1-1.77,1.23h-17.86a1.8823,1.8823,0,0,1-1.86-1.56,1.2812,1.2812,0,0,1-.04-.34,1.2646,1.2646,0,0,1,.03-.28,1.8867,1.8867,0,0,1,1.87-1.61h17.86a1.8708,1.8708,0,0,1,1.79,1.3,1.4031,1.4031,0,0,1,.14.61A1.3335,1.3335,0,0,1,33.1471,21.342Z"/>
  </g>
</svg>
