<svg id="Layer_1" data-name="Layer 1" xmlns="http://www.w3.org/2000/svg" viewBox="0 0 44.6742 44.6742">
  <defs>
    <style>
      .cls-1 {
        fill: #0e2653;
      }
    </style>
  </defs>
  <title>Double Tutorial Bundle_v3</title>
  <g>
    <path class="cls-1" d="M28.2347,12.8071a15.8906,15.8906,0,1,0,15.89,15.8906A15.9091,15.9091,0,0,0,28.2347,12.8071Zm9.8828,19.7636a1.25,1.25,0,0,1,0,2.5H31.46a1.25,1.25,0,0,1-.917-2.1l5.9931-6.4687a2.2351,2.2351,0,1,0-3.9385-2.0957,1.2494,1.2494,0,1,1-2.2753-1.0332A4.7343,4.7343,0,1,1,38.5638,27.97a1.304,1.304,0,0,1-.12.1524l-4.1211,4.4482Zm-10.51.8516a1.25,1.25,0,1,1-2,1.5l-2.6118-3.4829-2.6118,3.4829a1.25,1.25,0,0,1-2-1.5l3.0493-4.0664L18.3841,25.29a1.25,1.25,0,1,1,2-1.5l2.6118,3.4829L25.6077,23.79a1.25,1.25,0,0,1,2,1.5l-3.0493,4.0664Z"/>
    <path class="cls-1" d="M18.0394,9.9975a1.5951,1.5951,0,0,0-.8-1.3906L2.9661.3041A1.61,1.61,0,0,0,.5491,1.6967V18.2992A1.61,1.61,0,0,0,2.9681,19.69l14.2724-8.3018A1.5939,1.5939,0,0,0,18.0394,9.9975Z"/>
  </g>
</svg>
