<svg id="Layer_1" data-name="Layer 1" xmlns="http://www.w3.org/2000/svg" viewBox="0 0 44.6742 44.6742">
  <defs>
    <style>
      .cls-1 {
        fill: #0e2653;
      }
    </style>
  </defs>
  <title>E2 Rewards (Referrals)_v3</title>
  <path class="cls-1" d="M36.9032,29.4371a7.5673,7.5673,0,0,0-5.9793,2.9356l-8.9323-5.2146a11.3118,11.3118,0,0,0,.0178-9.7273L30.9081,12.28a7.5019,7.5019,0,1,0-1.0093-1.7265L21.0086,15.7a11.4563,11.4563,0,1,0-.0246,13.1853l8.9243,5.21a7.5823,7.5823,0,1,0,6.9949-4.6578ZM6.9325,26.78l1.5564-1.8936a5.34,5.34,0,0,0,1.6828,1.1155,4.5835,4.5835,0,0,0,1.739.375,1.8786,1.8786,0,0,0,1.1578-.3281,1.0465,1.0465,0,0,0,.436-.8811,1.3337,1.3337,0,0,0-.0515-.38.9709.9709,0,0,0-.169-.3235,1.4521,1.4521,0,0,0-.2812-.2719,2.5881,2.5881,0,0,0-.417-.2437q-.2535-.122-.5486-.2344t-.7078-.2343q-.3654-.1125-.642-.2017t-.6143-.2109a6.3278,6.3278,0,0,1-.5906-.2437q-.253-.122-.5344-.272a2.984,2.984,0,0,1-.4873-.3186q-.2066-.1688-.4126-.37a2.1746,2.1746,0,0,1-.3469-.4361,3.841,3.841,0,0,1-.2532-.5061A2.6514,2.6514,0,0,1,7.284,20.33a4.2573,4.2573,0,0,1-.0515-.6748,3.5317,3.5317,0,0,1,.9422-2.5078,4.0912,4.0912,0,0,1,2.611-1.2048V13.6742h2.0061V16.046a8.1391,8.1391,0,0,1,1.7579.5906,7.2206,7.2206,0,0,1,1.5141.928l-1.5093,1.8938A5.1618,5.1618,0,0,0,11.5919,18.39a1.9375,1.9375,0,0,0-1.1343.2859.9261.9261,0,0,0-.4031.8015.9847.9847,0,0,0,.4688.8345,6.13,6.13,0,0,0,1.5561.6748q.4875.15.83.2627t.7454.2624a6.5824,6.5824,0,0,1,.68.29q.2765.1407.5813.3328a3.0622,3.0622,0,0,1,.5063.3892,3.6657,3.6657,0,0,1,.3936.4594,2.2712,2.2712,0,0,1,.3.553,3.8405,3.8405,0,0,1,.1736.6563,4.4281,4.4281,0,0,1,.0654.778,3.5111,3.5111,0,0,1-.9516,2.5313A4.365,4.365,0,0,1,12.7918,28.74v2.1375H10.7857V28.73A6.7011,6.7011,0,0,1,6.9325,26.78Z"/>
</svg>
