<svg id="Layer_1" data-name="Layer 1" xmlns="http://www.w3.org/2000/svg" viewBox="0 0 44.6742 44.6742">
  <defs>
    <style>
      .cls-1 {
        fill: #0e2653;
      }
    </style>
  </defs>
  <title>Essential Grammar_v3</title>
  <path class="cls-1" d="M16.3314,42.3315a20.23,20.23,0,0,1-6.7988-4.1434,18.5838,18.5838,0,0,1-4.534-6.7418,23.7319,23.7319,0,0,1-1.6458-8.9939,24.2917,24.2917,0,0,1,1.4733-8.5462A20.4629,20.4629,0,0,1,8.97,7.0629,18.5785,18.5785,0,0,1,15.6245,2.53,22.8473,22.8473,0,0,1,24.4311.8842a23.6547,23.6547,0,0,1,9.0944,1.8331A20.5608,20.5608,0,0,1,40.733,7.6529a.5481.5481,0,0,1-.0483.7892l-5.0929,4.32a.5356.5356,0,0,1-.71-.02,14.941,14.941,0,0,0-10.45-4.0327,12.329,12.329,0,0,0-4.8516.9525,11.958,11.958,0,0,0-3.94,2.6862,12.1673,12.1673,0,0,0-2.6564,4.3445,16.4742,16.4742,0,0,0-.9674,5.7606,15.5476,15.5476,0,0,0,1.53,6.9736,11.952,11.952,0,0,0,4.461,4.9372,12.4944,12.4944,0,0,0,6.77,1.8331,15.7752,15.7752,0,0,0,8.25-2.2328.5561.5561,0,0,0,.2674-.4751V28.16a.54.54,0,0,0-.54-.54H24.3932a.54.54,0,0,1-.54-.54V21.0292a.54.54,0,0,1,.54-.54H40.7814a.54.54,0,0,1,.54.54V38.3246a.55.55,0,0,1-.2074.4334,22.5419,22.5419,0,0,1-7.1408,3.6169A30.0487,30.0487,0,0,1,24.7771,43.79,24,24,0,0,1,16.3314,42.3315Z"/>
</svg>
