<svg id="Layer_1" data-name="Layer 1" xmlns="http://www.w3.org/2000/svg" viewBox="0 0 44.6742 44.6742">
  <defs>
    <style>
      .cls-1 {
        fill: none;
      }

      .cls-2 {
        fill: #0e2653;
      }
    </style>
  </defs>
  <title>Essential Pronunciation_v3</title>
  <g>
    <path class="cls-1" d="M31.3029,13.4125c-3.42,0-4.6445,2.4805-5.0205,4.9287h9.8887C35.7854,15.0688,34.1516,13.4125,31.3029,13.4125Z"/>
    <path class="cls-1" d="M8.6594,28.0033c0,1.1827.4482,3.1661,3.4482,3.1661,3.6465,0,5.1914-1.9366,5.2705-6.6612H14.4953C8.6594,24.5082,8.6594,26.9574,8.6594,28.0033Z"/>
    <path class="cls-2" d="M44.6076,23.9125c.0557-.4453.1016-2.1025.1016-2.4179,0-9.6211-4.8525-15.1387-13.3125-15.1387A13.28,13.28,0,0,0,22.8391,9.15C20.82,7.2719,17.8,6.3559,13.6526,6.3559c-10.23,0-12.2608,6.2373-12.5616,9.956a1.0005,1.0005,0,0,0,.9971,1.08H8.5022a1,1,0,0,0,.9912-.8691c.2842-2.1485,1.0322-3.3916,4.0185-3.3916,3.04,0,3.6348,1.35,3.6348,3.6816v1.294H14.4016c-13.03,0-14.4365,7.28-14.4365,10.41,0,4.7158,2.7587,9.7559,10.5029,9.7559a13.2325,13.2325,0,0,0,3.5156-.4366A19.053,19.053,0,0,0,21.2893,34.47a10.372,10.372,0,0,0,3.2461,2.4336,14.6072,14.6072,0,0,0,6.58,1.4151c8.5293,0,11.875-5.3565,13.1788-9.85a.9992.9992,0,0,0-.96-1.2784H36.8274a1,1,0,0,0-.9454.6739,4.2891,4.2891,0,0,1-4.5322,3.164,4.64,4.64,0,0,1-3.4375-1.3056A7.6,7.6,0,0,1,26.1,24.7885H43.6154A1,1,0,0,0,44.6076,23.9125ZM26.2824,18.3412c.376-2.4482,1.6006-4.9287,5.0205-4.9287,2.8487,0,4.4825,1.6563,4.8682,4.9287Zm-8.9043,6.167c-.0791,4.7246-1.624,6.6612-5.27,6.6612-3,0-3.4482-1.9834-3.4482-3.1661,0-1.0459,0-3.4951,5.8359-3.4951Z"/>
  </g>
</svg>
