<svg id="Layer_1" data-name="Layer 1" xmlns="http://www.w3.org/2000/svg" viewBox="0 0 44.6742 44.6742">
  <defs>
    <style>
      .cls-1 {
        fill: #0e2653;
      }
    </style>
  </defs>
  <title>Events_v3</title>
  <g>
    <path class="cls-1" d="M44.4991,4.8478a.9706.9706,0,0,0-.9738-.9741H34.3485V.379H31.4269V3.8737H13.2919V.379H10.3705V3.8737H1.1439A.9771.9771,0,0,0,.17,4.8478v8.7344H44.4991Z"/>
    <path class="cls-1" d="M.17,43.3241a.977.977,0,0,0,.9741.9739H33.4071V34.3649a1.4649,1.4649,0,0,1,1.4607-1.461l9.6313-.02V16.3063H.17Zm14.3584-16.16a.3611.3611,0,0,1,.2949-.248l4.9834-.7,2.1992-4.6006a.3627.3627,0,0,1,.3291-.2071h.002a.3614.3614,0,0,1,.3262.2071l2.2,4.6006,4.9824.6992a.3649.3649,0,0,1,.2041.6211l-3.5928,3.48.8594,5.1054a.3639.3639,0,0,1-.5332.3809L22.3348,34.067l-4.4492,2.4346a.3648.3648,0,0,1-.5342-.38l.8614-5.1064-3.5909-3.4776A.3631.3631,0,0,1,14.5282,27.1637Z"/>
    <path class="cls-1" d="M35.7054,35.9909V44.298h.1265l8.6672-8.677v-.117H36.1825A.4865.4865,0,0,0,35.7054,35.9909Z"/>
  </g>
</svg>
