<svg id="Layer_1" data-name="Layer 1" xmlns="http://www.w3.org/2000/svg" viewBox="0 0 44.6742 44.6742">
  <defs>
    <style>
      .cls-1 {
        fill: #0e2653;
      }
    </style>
  </defs>
  <title>Express_v3</title>
  <path class="cls-1" d="M33.022,26.6283a8.0667,8.0667,0,0,1-2.14-3.04,19.3177,19.3177,0,0,1-1.74-7.64c-.05-1.78-.11-3.09-.19-4.13-.6-9.21-6-11.57-6.23-11.66a.9411.9411,0,0,0-.77,0c-.23.09-5.63,2.45-6.23,11.66-.09,1.53-.15,2.84-.18,4.13a19.5025,19.5025,0,0,1-1.75,7.64,8.265,8.265,0,0,1-2.13,3.04c-3.79,2.82-5.43,6.86-5.02,12.33a.9893.9893,0,0,0,.79.91c1.22.26,5.87,1.14,8.18,1.58a1.0255,1.0255,0,0,0,.68.42l.66,2.04a1.0123,1.0123,0,0,0,.96.69h8.86a1.0088,1.0088,0,0,0,.95-.69l.66-2.04a1.0128,1.0128,0,0,0,.7-.45c1.63-.29,5.85-1.06,8.16-1.55a.9893.9893,0,0,0,.79-.91C38.4422,33.4884,36.802,29.4584,33.022,26.6283ZM25.9842,14.7112a3.7559,3.7559,0,0,1-6.2806,1.74,3.8047,3.8047,0,0,1-1.014-3.6069,3.6884,3.6884,0,0,1,2.685-2.6967,4.5142,4.5142,0,0,1,.945-.1151,3.7566,3.7566,0,0,1,3.6646,4.6786Z"/>
</svg>
