<svg id="Layer_1" data-name="Layer 1" xmlns="http://www.w3.org/2000/svg" viewBox="0 0 44.6742 44.6742">
  <defs>
    <style>
      .cls-1 {
        fill: none;
      }

      .cls-2 {
        fill: #0e2653;
      }
    </style>
  </defs>
  <title>Express+_v3</title>
  <g>
    <path class="cls-1" d="M23.3221,17.4082a3.7544,3.7544,0,0,0-1-7.38,4.3823,4.3823,0,0,0-.94.12,3.6754,3.6754,0,0,0-2.69,2.69,3.7744,3.7744,0,0,0,4.63,4.57Z"/>
    <path class="cls-2" d="M33.0221,26.6284a8.0717,8.0717,0,0,1-2.14-3.04,19.32,19.32,0,0,1-1.74-7.64c-.05-1.78-.11-3.09-.19-4.13-.6-9.21-6-11.57-6.23-11.66a.94.94,0,0,0-.77,0c-.23.09-5.63,2.45-6.23,11.66-.09,1.53-.15,2.84-.18,4.13a19.5035,19.5035,0,0,1-1.75,7.64,8.2685,8.2685,0,0,1-2.13,3.04c-3.79,2.82-5.43,6.86-5.02,12.33a.9889.9889,0,0,0,.79.91c1.22.26,8.45,1.66,8.78,1.73l.74,2.31a1.0118,1.0118,0,0,0,.96.69h8.86a1.0087,1.0087,0,0,0,.95-.69l.74-2.32c.29-.04,6.47-1.23,8.78-1.72a.9888.9888,0,0,0,.79-.91C38.4422,33.4882,36.8021,29.4585,33.0221,26.6284ZM24.6136,34.019v4.4365a.3181.3181,0,0,1-.3223.3125H20.3822a.3179.3179,0,0,1-.3213-.3125V34.019H15.6244a.3179.3179,0,0,1-.3125-.3213V29.7885a.3179.3179,0,0,1,.3125-.3213h4.4365V25.0307a.3179.3179,0,0,1,.3213-.3125h3.9091a.3182.3182,0,0,1,.3223.3125v4.4365h4.4356a.318.318,0,0,1,.3125.3213v3.9092a.3179.3179,0,0,1-.3125.3213ZM18.6922,12.8383a3.6754,3.6754,0,0,1,2.69-2.69,4.3823,4.3823,0,0,1,.94-.12,3.7422,3.7422,0,1,1-3.63,2.81Z"/>
  </g>
</svg>
