<svg id="Layer_1" data-name="Layer 1" xmlns="http://www.w3.org/2000/svg" viewBox="0 0 44.6742 44.6742">
  <defs>
    <style>
      .cls-1 {
        fill: #0e2653;
      }
    </style>
  </defs>
  <title>Features_v3</title>
  <path class="cls-1" d="M42.682,1.7721H2.0021a1.0947,1.0947,0,0,0-1.1,1.09v38.97a1.0734,1.0734,0,0,0,1.08,1.07h40.7a1.0926,1.0926,0,0,0,1.09-1.09V2.862A1.0926,1.0926,0,0,0,42.682,1.7721Zm-13.5556,3a1.1479,1.1479,0,1,1-1.1436,1.1521A1.1475,1.1475,0,0,1,29.1264,4.7721ZM26.3315,36.5746a2.411,2.411,0,0,1-2.41,2.41H20.7524a2.4109,2.4109,0,0,1-2.41-2.41v-1.72h7.9888ZM29.413,26.4758a20.9055,20.9055,0,0,0-1.62,2.03,8.1542,8.1542,0,0,0-1.44,2.72H18.3149a7.8693,7.8693,0,0,0-1.31-2.51,17.5341,17.5341,0,0,0-1.71-2.1895,9.6067,9.6067,0,0,1,1.17-14.1477,10.2952,10.2952,0,0,1,4.9292-1.96A9.6069,9.6069,0,0,1,29.413,26.4758Zm4.6445-19.408a1.1479,1.1479,0,1,1,1.1433-1.1436A1.1474,1.1474,0,0,1,34.0575,7.0678Zm4.9222,0a1.1479,1.1479,0,0,1,0-2.2957,1.1479,1.1479,0,1,1,0,2.2957Z"/>
</svg>
