<svg id="Layer_1" data-name="Layer 1" xmlns="http://www.w3.org/2000/svg" viewBox="0 0 44.6742 44.6742">
  <defs>
    <style>
      .cls-1 {
        fill: #0e2653;
      }
    </style>
  </defs>
  <title>Free trial_v3</title>
  <g>
    <path class="cls-1" d="M16.1241,7.144h-.9473v4.5869h.9473A2.4725,2.4725,0,0,0,18.7374,9.438,2.4726,2.4726,0,0,0,16.1241,7.144Z"/>
    <path class="cls-1" d="M42.67.0473H2.004a1.5,1.5,0,0,0-1.5,1.5V26.4985a1.5,1.5,0,0,0,1.5,1.5H14.3216a12.71,12.71,0,0,1-.2209-2.2324v-.9424a2.2993,2.2993,0,0,1,2.3008-2.293h11.88a2.2952,2.2952,0,0,1,2.293,2.293v.9424a12.874,12.874,0,0,1-.2178,2.2324H42.67a1.5,1.5,0,0,0,1.5-1.5V1.5473A1.5,1.5,0,0,0,42.67.0473ZM37.7706,10.644v2.1992h-2.709v3.5H39.627v2.1992H33.962a1.0994,1.0994,0,0,1-1.1-1.1V6.0444a1.1,1.1,0,0,1,1.1-1.1h5.665V7.144H35.0616v3.5Zm-29.3906,0v2.1992H6.1475v5.1153H3.9483V6.0444a1.1,1.1,0,0,1,1.1-1.1H9.9034V7.144H6.1475v3.5Zm12.4961,6.208-1.8555,1.1817-2.6282-4.129c-.0906.0049-.1765.0254-.2683.0254h-.9473v4.0284H12.9776V6.0444a1.1,1.1,0,0,1,1.1-1.1h2.0469A4.6659,4.6659,0,0,1,20.9366,9.438a4.4293,4.4293,0,0,1-2.34,3.8337Zm8.9111-9.708H25.2227v3.5h2.708v2.1992h-2.708v3.5h4.5645v2.1992H24.1231a1.0994,1.0994,0,0,1-1.1-1.1V6.0444a1.1,1.1,0,0,1,1.1-1.1h5.6641Z"/>
    <path class="cls-1" d="M28.6563,25.769v-.9443a.375.375,0,0,0-.375-.375H16.3985a.3751.3751,0,0,0-.375.375v.9443A10.5984,10.5984,0,0,0,17.48,31.1635a8.508,8.508,0,0,0,2.2763,2.6885.7245.7245,0,0,1,.3125.6026v.206a.7275.7275,0,0,1-.3144.6045,8.507,8.507,0,0,0-2.2754,2.6875,10.586,10.586,0,0,0-1.4551,5.3857v.9444a.3751.3751,0,0,0,.375.375H28.2813a.3751.3751,0,0,0,.375-.375v-.9444a10.5828,10.5828,0,0,0-1.4492-5.3867,8.4432,8.4432,0,0,0-2.28-2.6855.7418.7418,0,0,1-.3164-.6055v-.206a.74.74,0,0,1,.3135-.6036,8.4494,8.4494,0,0,0,2.2842-2.6884A10.6013,10.6013,0,0,0,28.6563,25.769Z"/>
  </g>
</svg>
