<svg id="Layer_1" data-name="Layer 1" xmlns="http://www.w3.org/2000/svg" viewBox="0 0 44.6742 44.6742">
  <defs>
    <style>
      .cls-1 {
        fill: #0e2653;
      }
    </style>
  </defs>
  <title>Gold_v3</title>
  <g>
    <path class="cls-1" d="M19.5348,31.5377,15.126,35.8062l1.0554,6.2492a.5438.5438,0,0,1-.2149.5416.5631.5631,0,0,1-.579.0374l-5.455-2.98-5.4457,2.98a.5425.5425,0,0,1-.2614.0654.559.559,0,0,1-.3177-.1028.5329.5329,0,0,1-.2241-.5416L4.739,35.8062.34,31.5377A.5286.5286,0,0,1,.19,30.9772a.5491.5491,0,0,1,.4483-.3642l6.1089-.86,2.6993-5.6419a.5639.5639,0,0,1,.9528-.0465l-.5418,3.2132a4.3347,4.3347,0,0,0,1.7562,4.2594,4.2536,4.2536,0,0,0,2.5032.8032,4.3447,4.3447,0,0,0,2.0456-.5136L18.5539,30.52l.6726.0935a.5489.5489,0,0,1,.4483.3642A.543.543,0,0,1,19.5348,31.5377Z"/>
    <path class="cls-1" d="M44.3438,31.5377,39.935,35.8062,40.99,42.0554a.5441.5441,0,0,1-.2148.5416.5636.5636,0,0,1-.5793.0374l-5.4548-2.98-5.4551,2.98a.4944.4944,0,0,1-.2615.0654.6074.6074,0,0,1-.3175-.1028.5437.5437,0,0,1-.2148-.5416l1.0554-6.2492-4.4088-4.2685a.5431.5431,0,0,1-.14-.5605.55.55,0,0,1,.4485-.3642l.5042-.0748,2.3261,1.27a4.3214,4.3214,0,0,0,6.3328-4.53l-.4857-2.9049.1215-.2618a.57.57,0,0,1,.99,0l2.6994,5.6419,6.0995.86a.5491.5491,0,0,1,.4483.3642A.5426.5426,0,0,1,44.3438,31.5377Z"/>
    <path class="cls-1" d="M35.8717,12.94l-6.2582,6.0624,1.4943,8.8828a.75.75,0,0,1-.3081.7567.7658.7658,0,0,1-.4576.15.7308.7308,0,0,1-.3645-.0935l-7.7435-4.2408-7.7435,4.2408a.7388.7388,0,0,1-.3735.0935.7587.7587,0,0,1-.4483-.15.7507.7507,0,0,1-.3084-.7567l1.4947-8.8828L8.6062,12.94a.7479.7479,0,0,1-.2055-.7938.7662.7662,0,0,1,.6351-.5231L17.704,10.4l3.83-8.0142a.7692.7692,0,0,1,.7005-.4109.7589.7589,0,0,1,.7006.4109l3.83,8.0142,8.6682,1.2237a.77.77,0,0,1,.439,1.3169Z"/>
  </g>
</svg>
