<svg id="Layer_1" data-name="Layer 1" xmlns="http://www.w3.org/2000/svg" viewBox="0 0 44.6742 44.6742">
  <defs>
    <style>
      .cls-1 {
        fill: #0e2653;
      }
    </style>
  </defs>
  <title>Group Classes_v3</title>
  <g>
    <path class="cls-1" d="M12.7009,22.5586H27.2585a.2505.2505,0,0,0,.25-.25V14.8642l.4248-.209a75.1,75.1,0,0,0,9.8252-5.65h.001a2.2777,2.2777,0,0,0-2.3379-3.8994,72.6505,72.6505,0,0,1-7.1494,3.2227,20.2239,20.2239,0,0,1-6.4634,1.2773,5.0736,5.0736,0,1,0-3.9043.2835c-.1528.0222-.31.0422-.4575.0671a6.0434,6.0434,0,0,0-4.9961,5.96v6.3926A.2505.2505,0,0,0,12.7009,22.5586Z"/>
    <path class="cls-1" d="M13.8415,38.4931h-.1967a5.103,5.103,0,1,0-4.3167,0h-.135A5.9188,5.9188,0,0,0,3.2771,44.4a.25.25,0,0,0,.25.25H19.5085a.25.25,0,0,0,.25-.25A5.9191,5.9191,0,0,0,13.8415,38.4931Z"/>
    <path class="cls-1" d="M35.4812,38.4931h-.1985a5.1033,5.1033,0,1,0-4.3164,0h-.1336A5.919,5.919,0,0,0,24.9158,44.4a.25.25,0,0,0,.25.25H41.1472a.25.25,0,0,0,.25-.25A5.9188,5.9188,0,0,0,35.4812,38.4931Z"/>
  </g>
</svg>
