<svg id="Layer_1" data-name="Layer 1" xmlns="http://www.w3.org/2000/svg" viewBox="0 0 44.6742 44.6742">
  <defs>
    <style>
      .cls-1 {
        fill: #0e2653;
      }
    </style>
  </defs>
  <title>Help_v3</title>
  <path class="cls-1" d="M22.3369.4376a21.9,21.9,0,1,0,21.9,21.8994A21.8994,21.8994,0,0,0,22.3369.4376ZM23.62,36.6622a2.9548,2.9548,0,0,1-2.1425.878,3.1,3.1,0,0,1-1.56-.4043A2.9673,2.9673,0,0,1,18.8028,36.04a2.9127,2.9127,0,0,1-.4053-1.501,3.0078,3.0078,0,0,1,1.52-2.6162,3.0993,3.0993,0,0,1,1.56-.4043,2.938,2.938,0,0,1,2.1425.8887,2.9678,2.9678,0,0,1,0,4.2548Zm6.6143-19.5478a7.2921,7.2921,0,0,1-.8291,1.915A13.26,13.26,0,0,1,28.3,20.58a19.3977,19.3977,0,0,1-1.333,1.4209q-.3354.3163-.9677.8984t-.9668.918q-.3356.3369-.74.81a4.0533,4.0533,0,0,0-.6025.8984,2.2748,2.2748,0,0,0-.2178.8594l-.0542.9766a.8474.8474,0,0,1-.8462.8007H20.2051a.8474.8474,0,0,1-.8476-.84l-.0118-1.1945a4.6712,4.6712,0,0,1,.0586-.74q.06-.3661.1289-.6719a3.2742,3.2742,0,0,1,.2364-.6611c.1123-.2373.2109-.4375.2968-.6025a4.5822,4.5822,0,0,1,.3848-.5918q.2563-.3457.415-.5528.1568-.2079.4737-.5625c.2109-.2373.3681-.4121.4736-.5234s.28-.2969.5234-.5527.4112-.4317.503-.5235a14.571,14.571,0,0,0,1.9258-2.458,4.8127,4.8127,0,0,0,.6611-2.498A3.4,3.4,0,0,0,24.42,12.5734a3.6992,3.6992,0,0,0-2.626-.9375,4.8837,4.8837,0,0,0-2.35.6308,5.3837,5.3837,0,0,0-1.7071,1.4512.3144.3144,0,0,1-.466.0471L14.376,11.0731a.3287.3287,0,0,1-.0315-.4465,9.3824,9.3824,0,0,1,3.2737-2.5161,10.58,10.58,0,0,1,4.5508-.9766,10.2579,10.2579,0,0,1,2.5176.3057,8.3349,8.3349,0,0,1,2.28.9482,7.7031,7.7031,0,0,1,1.8565,1.55,6.7128,6.7128,0,0,1,1.2441,2.1914,8.3513,8.3513,0,0,1,.4541,2.8037A8.1329,8.1329,0,0,1,30.2344,17.1144Z"/>
</svg>
