<svg id="Layer_1" data-name="Layer 1" xmlns="http://www.w3.org/2000/svg" viewBox="0 0 44.6742 44.6742">
  <defs>
    <style>
      .cls-1 {
        fill: #0e2653;
      }
    </style>
  </defs>
  <title>Level 5_v3</title>
  <g>
    <path class="cls-1" d="M36.1817,11.0766a1.3369,1.3369,0,0,0,1.1484.6621h.002a1.3372,1.3372,0,0,0,1.15-.6611l4.5039-7.7422A1.33,1.33,0,0,0,41.835,1.3373H32.83a1.33,1.33,0,0,0-1.15,1.999Z"/>
    <path class="cls-1" d="M43.7764,41.3373H40.3076V14.8715h-5.95V41.3373h-2V19.6332H26.4082V41.3373h-2V24.3949H18.459V41.3373h-2V29.1557H10.51V41.3373h-2v-7.42H2.5606v7.42H.8975a.9869.9869,0,0,0-.3369.0679.9945.9945,0,0,0,.3369,1.9321H43.7764a1,1,0,0,0,0-2Z"/>
  </g>
</svg>
