<svg id="Layer_1" data-name="Layer 1" xmlns="http://www.w3.org/2000/svg" viewBox="0 0 44.6742 44.6742">
  <defs>
    <style>
      .cls-1 {
        fill: #0e2653;
      }
    </style>
  </defs>
  <title>Level 4_v3</title>
  <g>
    <path class="cls-1" d="M43.2371,41.3139h-9.36v-22.93H27.5174v22.93h-2V23.392h-6.36V41.3139h-2V28.3988h-6.36V41.3139h-2V33.4067H2.4373v7.9072h-1a1,1,0,0,0,0,2h41.8a1,1,0,0,0,0-2Z"/>
    <path class="cls-1" d="M29.532,11.5258a1.3529,1.3529,0,0,0,1.1631.6709h.002a1.3535,1.3535,0,0,0,1.165-.67l4.7353-8.1416a1.3467,1.3467,0,0,0-1.165-2.0244H25.9617a1.3467,1.3467,0,0,0-1.165,2.0244Z"/>
  </g>
</svg>
