<svg id="Layer_1" data-name="Layer 1" xmlns="http://www.w3.org/2000/svg" viewBox="0 0 44.6742 44.6742">
  <defs>
    <style>
      .cls-1 {
        fill: #0e2653;
      }
    </style>
  </defs>
  <title>Live Classes_v3_1</title>
  <g>
    <path class="cls-1" d="M.1944,4.589A1.3687,1.3687,0,0,0,1.5592,5.9537H3.6336V4.48a2.12,2.12,0,0,1,.1089-.664l.1912-.5914H1.5592A1.3459,1.3459,0,0,0,.1944,4.589Z"/>
    <path class="cls-1" d="M43.1151,3.2242h-2.211l.1822.5914a2.12,2.12,0,0,1,.1089.664V5.9537h1.92a1.3648,1.3648,0,0,0,0-2.73Z"/>
    <path class="cls-1" d="M8.283,39.4752a1.3533,1.3533,0,0,0,.6094,1.8291,1.3342,1.3342,0,0,0,.6006.1455,1.3644,1.3644,0,0,0,1.2285-.7553l1.7559-3.5391H9.4386Z"/>
    <path class="cls-1" d="M35.4044,37.1554H32.3565l1.7649,3.5391a1.3648,1.3648,0,0,0,1.2193.7553,1.4034,1.4034,0,0,0,.61-.1455,1.3483,1.3483,0,0,0,.6094-1.8291Z"/>
    <path class="cls-1" d="M39.0731,3.6652a.3723.3723,0,0,0-.064-.1.5725.5725,0,0,0-.1-.1091.201.201,0,0,0-.0818-.064.3894.3894,0,0,0-.1548-.0908.596.596,0,0,0-.1184-.0364l-.009-.009h-.0184a.7029.7029,0,0,0-.2-.0274H6.5111a.7051.7051,0,0,0-.2.0274H6.3016c-.009,0-.009,0-.0181.009a.5934.5934,0,0,0-.1181.0364.8786.8786,0,0,0-.2276.1455.1111.1111,0,0,0-.0454.0457.5635.5635,0,0,0-.1274.1726.3034.3034,0,0,0-.0545.1093.7894.7894,0,0,0-.0547.2911v29.705a.8332.8332,0,0,0,.846.8189H38.327a.8445.8445,0,0,0,.8552-.8369V4.0656a.7872.7872,0,0,0-.0544-.2911Q39.1,3.72,39.0731,3.6652ZM29.0155,19.8781,18.764,25.84a1.0961,1.0961,0,0,1-.5644.15,1.0652,1.0652,0,0,1-.5506-.15,1.1116,1.1116,0,0,1-.5642-.9654V12.9511a1.1226,1.1226,0,0,1,.5642-.972,1.108,1.108,0,0,1,1.115.0069l10.2515,5.9614a1.0975,1.0975,0,0,1,.5571.9656A1.1128,1.1128,0,0,1,29.0155,19.8781Z"/>
  </g>
</svg>
