<svg id="Layer_1" data-name="Layer 1" xmlns="http://www.w3.org/2000/svg" viewBox="0 0 44.6742 44.6742">
  <defs>
    <style>
      .cls-1 {
        fill: none;
      }

      .cls-2 {
        fill: #0e2653;
      }
    </style>
  </defs>
  <title>Live classes multiple presenters_v3</title>
  <g>
    <path class="cls-1" d="M16.1275,27.1762c-.0162.0623-.0228.128-.0406.1895.1934-.0552.3775-.1284.5679-.1895Z"/>
    <path class="cls-2" d="M39.7285,4.2133H43.11a1,1,0,0,0,0-2H39.7285a1,1,0,0,0,0,2Z"/>
    <path class="cls-2" d="M36.0108,3.4672a1.003,1.003,0,0,0-1.3545-.4091l-3.6578,1.96L28.9353,6.1233a2.3565,2.3565,0,0,0-2.5476-.24,82.8758,82.8758,0,0,1-7.9424,3.5742,22.997,22.997,0,0,1-7.958,1.47c-.0244,0-.0569.0017-.0818.002a5.4722,5.4722,0,1,0-2.8093.1733c-.3867.0444-.7842.0991-1.187.1675A6.5538,6.5538,0,0,0,.9981,17.7348v3.7129h.9606a7.6921,7.6921,0,0,1,12.9742-.7353h2.4548V16.4712l.5606-.2813a84.6624,84.6624,0,0,0,10.874-6.25A2.3323,2.3323,0,0,0,29.87,7.8928l2.0638-1.1057,3.6682-1.9654A1.0013,1.0013,0,0,0,36.0108,3.4672Z"/>
    <path class="cls-2" d="M26.3877,25.3569a82.6384,82.6384,0,0,1-7.9424,3.5742,22.997,22.997,0,0,1-7.958,1.47c-.0244,0-.0571.0018-.082.002A5.4724,5.4724,0,1,0,7.6,30.5766c-.3879.0445-.7866.0989-1.19.167A6.5554,6.5554,0,0,0,.9981,37.2085V44.29a.1245.1245,0,0,0,.125.125h16.14a.1246.1246,0,0,0,.125-.125V35.9448l.5606-.2813a84.6505,84.6505,0,0,0,10.874-6.25,2.3134,2.3134,0,0,0,1.0185-1.57,2.3552,2.3552,0,0,0,.0283-.4765l2.0635-1.1055,3.669-1.9658a1.0005,1.0005,0,1,0-.9453-1.7637L31.0032,24.489l-2.0679,1.1079A2.3567,2.3567,0,0,0,26.3877,25.3569Z"/>
    <path class="cls-2" d="M43.11,21.687H39.7285a1,1,0,0,0,0,2H43.11a1,1,0,0,0,0-2Z"/>
  </g>
</svg>
