<svg id="Layer_1" data-name="Layer 1" xmlns="http://www.w3.org/2000/svg" viewBox="0 0 44.6742 44.6742">
  <defs>
    <style>
      .cls-1 {
        fill: #0e2653;
      }
    </style>
  </defs>
  <title>Live Class Recordings_v3</title>
  <g>
    <path class="cls-1" d="M.0976,4.5114A1.3748,1.3748,0,0,0,1.4683,5.8823H3.5518V4.4018a2.13,2.13,0,0,1,.11-.6672l.1919-.5938H1.4683A1.3516,1.3516,0,0,0,.0976,4.5114Z"/>
    <path class="cls-1" d="M41.2778,4.4018V5.8823h1.928a1.3708,1.3708,0,1,0,0-2.7415H40.9853l.1829.5938A2.13,2.13,0,0,1,41.2778,4.4018Z"/>
    <path class="cls-1" d="M8.2217,39.55a1.3588,1.3588,0,0,0,.612,1.8369,1.3383,1.3383,0,0,0,.6033.1462,1.37,1.37,0,0,0,1.2336-.7585L12.4341,37.22H9.3821Z"/>
    <path class="cls-1" d="M35.4614,37.22H32.4l1.7724,3.5545a1.3708,1.3708,0,0,0,1.2247.7585,1.4062,1.4062,0,0,0,.6123-.1462,1.3543,1.3543,0,0,0,.6123-1.8369Z"/>
    <path class="cls-1" d="M44.335,9.8378a1.0033,1.0033,0,0,0-1.0879.211l-3.9912,3.9358V3.9858a.79.79,0,0,0-.0547-.2925c-.0186-.0366-.0367-.073-.055-.11a.3672.3672,0,0,0-.0642-.1.5676.5676,0,0,0-.1-.11.2.2,0,0,0-.0823-.064.384.384,0,0,0-.1553-.0913.5992.5992,0,0,0-.1189-.0366l-.009-.009h-.0183a.7121.7121,0,0,0-.2012-.0276H6.4419a.7121.7121,0,0,0-.2012.0276h-.009c-.0093,0-.0093,0-.0183.009a.6.6,0,0,0-.1187.0366.8766.8766,0,0,0-.2285.146.1111.1111,0,0,0-.0457.0459.5642.5642,0,0,0-.1281.1736.3061.3061,0,0,0-.0547.11.79.79,0,0,0-.0547.2925v29.835a.8368.8368,0,0,0,.85.8225H38.3967a.8485.8485,0,0,0,.8592-.8406V23.8073l3.9912,3.9358a1,1,0,0,0,1.7021-.7119v-16.27A1.0012,1.0012,0,0,0,44.335,9.8378Zm-15.2906,10.03-10.2961,5.988a1.099,1.099,0,0,1-.5667.15,1.07,1.07,0,0,1-.5532-.15,1.1168,1.1168,0,0,1-.5664-.9695V12.91a1.1276,1.1276,0,0,1,.5664-.9763,1.1135,1.1135,0,0,1,1.12.0068l10.2961,5.9876a1.102,1.102,0,0,1,.56.97A1.1177,1.1177,0,0,1,29.0444,19.8674Z"/>
  </g>
</svg>
