<svg id="Layer_1" data-name="Layer 1" xmlns="http://www.w3.org/2000/svg" viewBox="0 0 44.6742 44.6742">
  <defs>
    <style>
      .cls-1 {
        fill: #0e2653;
      }
    </style>
  </defs>
  <title>Live Classes_v3</title>
  <g>
    <path class="cls-1" d="M-.0271,4.4116A1.3823,1.3823,0,0,0,1.3514,5.79H3.4463V4.3012a2.1476,2.1476,0,0,1,.11-.6709L3.75,3.0332H1.3514A1.3593,1.3593,0,0,0-.0271,4.4116Z"/>
    <path class="cls-1" d="M43.323,3.0332H41.09l.1836.5971a2.1394,2.1394,0,0,1,.11.6709V5.79H43.323a1.3783,1.3783,0,0,0,0-2.7566Z"/>
    <path class="cls-1" d="M8.1424,39.6469a1.3666,1.3666,0,0,0,.6157,1.8472,1.3455,1.3455,0,0,0,.6065.147,1.3777,1.3777,0,0,0,1.2407-.7627l1.7734-3.5747H9.3094Z"/>
    <path class="cls-1" d="M35.5352,37.3037H32.4568l1.7825,3.5747a1.379,1.379,0,0,0,1.2315.7627,1.4161,1.4161,0,0,0,.6159-.147,1.3621,1.3621,0,0,0,.6155-1.8472Z"/>
    <path class="cls-1" d="M39.2405,3.4785a.38.38,0,0,0-.0644-.1011.5993.5993,0,0,0-.1011-.11.2012.2012,0,0,0-.0828-.0642.3871.3871,0,0,0-.156-.0918.6062.6062,0,0,0-.12-.0368l-.0093-.0093H38.689a.7185.7185,0,0,0-.2021-.0273H6.3526a.7208.7208,0,0,0-.2022.0273h-.009c-.0093,0-.0093,0-.0185.0093a.6027.6027,0,0,0-.1192.0368.883.883,0,0,0-.23.147.111.111,0,0,0-.0459.0459.5775.5775,0,0,0-.1289.1746.3088.3088,0,0,0-.0547.11.7943.7943,0,0,0-.0551.294V33.885a.8417.8417,0,0,0,.8545.8274H38.4869a.8536.8536,0,0,0,.864-.8455V3.8828a.7985.7985,0,0,0-.0552-.294C39.2771,3.5522,39.2588,3.5153,39.2405,3.4785ZM29.0821,19.8535,18.7283,25.875a1.1058,1.1058,0,0,1-.57.1511,1.0743,1.0743,0,0,1-.5562-.1511,1.1221,1.1221,0,0,1-.57-.9749V12.8571a1.1338,1.1338,0,0,1,.57-.9817,1.1192,1.1192,0,0,1,1.1262.0069l10.3538,6.0212a1.1083,1.1083,0,0,1,.563.9751A1.1236,1.1236,0,0,1,29.0821,19.8535Z"/>
  </g>
</svg>
