<svg id="Layer_1" data-name="Layer 1" xmlns="http://www.w3.org/2000/svg" viewBox="0 0 44.6742 44.6742">
  <defs>
    <style>
      .cls-1 {
        fill: #0e2653;
      }
    </style>
  </defs>
  <title>Messages_v3</title>
  <g>
    <path class="cls-1" d="M.2021,11.8287l22.01,11.8252a.2529.2529,0,0,0,.2363,0L44.4717,11.8287a.2517.2517,0,0,0,.1318-.2207v-4.87a1.6838,1.6838,0,0,0-1.6817-1.6826H1.7519A1.6838,1.6838,0,0,0,.07,6.7379v4.87A.2517.2517,0,0,0,.2021,11.8287Z"/>
    <path class="cls-1" d="M44.4824,15.5719a.2463.2463,0,0,0-.2461-.0049L22.33,27.3414.4384,15.567a.246.246,0,0,0-.246.0049.2491.2491,0,0,0-.1221.2148v22.15a1.6846,1.6846,0,0,0,1.6826,1.6826H42.9218a1.6846,1.6846,0,0,0,1.6827-1.6826V15.7867A.2491.2491,0,0,0,44.4824,15.5719Z"/>
  </g>
</svg>
