<svg id="Layer_1" data-name="Layer 1" xmlns="http://www.w3.org/2000/svg" viewBox="0 0 44.6742 44.6742">
  <defs>
    <style>
      .cls-1 {
        fill: #162b54;
      }
    </style>
  </defs>
  <title>Method Lessons_v3</title>
  <g>
    <path class="cls-1" d="M12.0225,22.364a9.01,9.01,0,1,0,9.01-9A9.0179,9.0179,0,0,0,12.0225,22.364Z"/>
    <path class="cls-1" d="M42.9327,20.404c-.67.23-1.33.45-1.99.65a20.0418,20.0418,0,0,0-14.82-18.25,1.8993,1.8993,0,1,0-.98,3.67,16.2286,16.2286,0,0,1,11.94,14.05c-.5-.28-1.01-.54-1.51-.79a.6021.6021,0,0,0-.84.73,32.9162,32.9162,0,0,1,1.69,9.23.607.607,0,0,0,1.05.38,37.8387,37.8387,0,0,0,6.2-8.82A.6059.6059,0,0,0,42.9327,20.404Z"/>
    <path class="cls-1" d="M32.4224,33.604a16.0959,16.0959,0,0,1-11.47,4.76,16.26,16.26,0,0,1-7.27-1.71c.48-.23.96-.47,1.43-.71a.603.603,0,0,0-.1-1.11,32.9747,32.9747,0,0,1-8.44-4.09.6115.6115,0,0,0-.93.62,37.9818,37.9818,0,0,0,3.46,10.22.6038.6038,0,0,0,1.12-.1q.315-1.0349.66-2.04a20.01,20.01,0,0,0,24.23-3.15,1.9021,1.9021,0,1,0-2.69-2.69Z"/>
    <path class="cls-1" d="M4.7325,22.144a16.1461,16.1461,0,0,1,6.82-13.22c-.01.49,0,.98.01,1.47a.6014.6014,0,0,0,1.04.39,32.86,32.86,0,0,1,7.37-5.81.6031.6031,0,0,0-.15-1.1,37.99,37.99,0,0,0-10.71-1.36.6109.6109,0,0,0-.4,1.06c.57.52,1.12,1.05,1.65,1.58a19.9,19.9,0,0,0-9.43,16.99,20.1371,20.1371,0,0,0,.62,4.96,1.8986,1.8986,0,0,0,1.84,1.43,1.9223,1.9223,0,0,0,.47-.05,1.9045,1.9045,0,0,0,1.37-2.32A16.33,16.33,0,0,1,4.7325,22.144Z"/>
  </g>
</svg>
