<svg id="Layer_1" data-name="Layer 1" xmlns="http://www.w3.org/2000/svg" viewBox="0 0 44.6742 44.6742">
  <defs>
    <style>
      .cls-1 {
        fill: #0e2653;
      }
    </style>
  </defs>
  <title>My Assessments_v3</title>
  <g>
    <path class="cls-1" d="M27.3881,15.2617V1.09A1.0489,1.0489,0,0,0,26.3392.0412H1.14A1.0487,1.0487,0,0,0,.0912,1.09v25.2A1.0487,1.0487,0,0,0,1.14,27.3379H15.0753A15.8253,15.8253,0,0,1,27.3881,15.2617Zm-15.646,4.1362H11.705A.6448.6448,0,0,1,11.3,19.269l-.1565-.1382a.07.07,0,0,1-.0369-.0183L6.4909,15.1511a.73.73,0,0,1-.2488-.5252.6281.6281,0,0,1,.1565-.5341l1.8149-1.8794a.8467.8467,0,0,1,.4883-.2764.9457.9457,0,0,1,.553.1565l2.2661,1.9348,6.4765-7.4348a.7078.7078,0,0,1,1.0318-.0737l1.99,1.7136a.7447.7447,0,0,1,.2668.5068v.0369a.68.68,0,0,1-.1565.5156l-8.8257,9.8574A.7027.7027,0,0,1,11.7421,19.3979Z"/>
    <path class="cls-1" d="M30.4794,16.8266a13.9161,13.9161,0,1,0,13.916,13.916A13.9323,13.9323,0,0,0,30.4794,16.8266Zm0,25.8321a11.9161,11.9161,0,1,1,11.916-11.9161A11.93,11.93,0,0,1,30.4794,42.6587Z"/>
    <path class="cls-1" d="M30.4791,29.2329a3.6324,3.6324,0,1,0-3.6325-3.6324A3.6326,3.6326,0,0,0,30.4791,29.2329Z"/>
    <path class="cls-1" d="M32.2914,31.2077H28.6666a4.6451,4.6451,0,0,0-4.4787,4.7954v2.5242H36.77V36.0031A4.6452,4.6452,0,0,0,32.2914,31.2077Z"/>
  </g>
</svg>
