<svg id="Layer_1" data-name="Layer 1" xmlns="http://www.w3.org/2000/svg" viewBox="0 0 44.6742 44.6742">
  <defs>
    <style>
      .cls-1 {
        fill: #0e2653;
      }
    </style>
  </defs>
  <title>My Courses_v3</title>
  <g>
    <path class="cls-1" d="M30.8891,6.4929v8.7746c-.3288-.03-.6575-.05-.986-.05-.12-.01-.2291-.01-.3487-.01-.2191,0-.4382,0-.6573.02A15.6413,15.6413,0,0,0,16.1886,38.9715c.2091.3385.4282.6772.6672.996a10.7181,10.7181,0,0,0,.7769.996H2.8425a2.3742,2.3742,0,0,1-2.37-2.3606V3.8535A3.6533,3.6533,0,0,1,4.1174.2083H29.8931a.996.996,0,0,1,0,1.992H4.1174A1.662,1.662,0,0,0,2.4641,3.8535,1.6114,1.6114,0,0,0,2.9522,5.009a1.6281,1.6281,0,0,0,1.1652.488H29.8931A.9926.9926,0,0,1,30.8891,6.4929Z"/>
    <g>
      <path class="cls-1" d="M30.8891,17.14a8.1776,8.1776,0,0,0-.986-.06c-.12-.01-.2291-.01-.3487-.01-.2191,0-.4382.01-.6573.02A13.7747,13.7747,0,0,0,18.42,38.9715a11.0783,11.0783,0,0,0,.8066.996,11.6,11.6,0,0,0,.976.996A13.7774,13.7774,0,1,0,30.8891,17.14ZM29.5544,42.6466a11.7311,11.7311,0,0,1-6.0655-1.6831,10.8406,10.8406,0,0,1-1.4043-.996,11.3292,11.3292,0,0,1-1.0757-.996,11.7845,11.7845,0,0,1,7.8882-19.89c.2191-.01.4382-.02.6573-.02.12,0,.229,0,.3487.01a8.052,8.052,0,0,1,.986.07,11.79,11.79,0,0,1-1.3347,23.5049Z"/>
      <g>
        <path class="cls-1" d="M33.15,25.7648a3.5912,3.5912,0,0,1-2.2606,3.3365,3.2556,3.2556,0,0,1-.986.2391c-.12.01-.2291.02-.3487.02a3.5015,3.5015,0,0,1-.6573-.06,3.5964,3.5964,0,0,1,0-7.0712,3.5014,3.5014,0,0,1,.6573-.06c.12,0,.229.01.3487.02a3.25,3.25,0,0,1,.986.239A3.591,3.591,0,0,1,33.15,25.7648Z"/>
        <path class="cls-1" d="M35.7792,36.0631v2.5H23.32v-2.5a4.6028,4.6028,0,0,1,4.442-4.7507h3.5856A4.5947,4.5947,0,0,1,35.7792,36.0631Z"/>
      </g>
    </g>
  </g>
</svg>
