<svg id="Layer_1" data-name="Layer 1" xmlns="http://www.w3.org/2000/svg" viewBox="0 0 44.6742 44.6742">
  <defs>
    <style>
      .cls-1 {
        fill: #0e2653;
      }
    </style>
  </defs>
  <title>My Packages_v3</title>
  <g>
    <g>
      <path class="cls-1" d="M30.7629,9.5671a.3743.3743,0,0,0-.38-.35h-3.72v-.54a8.475,8.475,0,0,0-16.95,0v.54h-4.31a.3744.3744,0,0,0-.38.35l-2.39,31.16a.3754.3754,0,0,0,.38.41h15.35a14.4629,14.4629,0,0,1,11.21-23.61,13.5278,13.5278,0,0,1,1.81.12Zm-6.6,2.79a1.0126,1.0126,0,0,1-2.02-.1v-2.66a.38.38,0,0,0-.38-.38h-7.13a.38.38,0,0,0-.38.38v2.66a1.02,1.02,0,0,1-2.04-.01v-3.57a5.975,5.975,0,1,1,11.95,0v.54l.01,3.04A.3376.3376,0,0,1,24.1628,12.3571Z"/>
      <polygon class="cls-1" points="12.223 9.217 12.213 12.247 12.213 9.217 12.223 9.217"/>
    </g>
    <path class="cls-1" d="M24.1729,12.257a.3376.3376,0,0,1-.01.1V9.217Z"/>
    <g>
      <path class="cls-1" d="M31.543,19.6769a12.8043,12.8043,0,0,0-1.97-.15,12.4553,12.4553,0,0,0-8.46,21.61,12.3534,12.3534,0,0,0,8.46,3.33,12.4736,12.4736,0,0,0,1.97-24.79Zm-1.97,23.01a10.6851,10.6851,0,1,1,2.11-21.16,10.6848,10.6848,0,0,1-2.11,21.16Z"/>
      <path class="cls-1" d="M32.8628,27.3471a3.2923,3.2923,0,1,1-.91-2.27v.01A3.2686,3.2686,0,0,1,32.8628,27.3471Z"/>
      <path class="cls-1" d="M35.2629,36.757v2.29h-11.38v-2.29a4.2048,4.2048,0,0,1,4.05-4.34h3.28a3.6735,3.6735,0,0,1,1.32.24A4.3171,4.3171,0,0,1,35.2629,36.757Z"/>
    </g>
  </g>
</svg>
