<svg id="Layer_1" data-name="Layer 1" xmlns="http://www.w3.org/2000/svg" viewBox="0 0 44.6742 44.6742">
  <defs>
    <style>
      .cls-1 {
        fill: #0e2653;
      }
    </style>
  </defs>
  <title>Notifications_v3</title>
  <g>
    <path class="cls-1" d="M35.815,30.7858h-.4531v-10.41A13.0456,13.0456,0,0,0,24.7452,7.5783a4.006,4.006,0,1,0-4.82,0A13.043,13.043,0,0,0,9.3121,20.3756v10.41H8.86a3.5873,3.5873,0,0,0-3.5839,3.583v.2842A3.5875,3.5875,0,0,0,8.86,38.2369H35.815a3.5873,3.5873,0,0,0,3.583-3.5839v-.2842A3.5872,3.5872,0,0,0,35.815,30.7858ZM22.3355,2.6032A1.7954,1.7954,0,1,1,20.54,4.3986,1.7952,1.7952,0,0,1,22.3355,2.6032Z"/>
    <path class="cls-1" d="M17.2135,39.4613a5.129,5.129,0,0,0,10.24,0Z"/>
  </g>
</svg>
