<svg id="Layer_1" data-name="Layer 1" xmlns="http://www.w3.org/2000/svg" viewBox="0 0 44.6742 44.6742">
  <defs>
    <style>
      .cls-1 {
        fill: #0e2653;
      }
    </style>
  </defs>
  <title>One on One Tutoring_v3</title>
  <g>
    <path class="cls-1" d="M37.0851,37.92H36.76a5.6973,5.6973,0,1,0-4.6451,0h-.2527a6.6123,6.6123,0,0,0-6.6044,6.6054.25.25,0,0,0,.25.25H43.4406a.25.25,0,0,0,.25-.25A6.6126,6.6126,0,0,0,37.0851,37.92Z"/>
    <path class="cls-1" d="M30.423,17.6132a2.4574,2.4574,0,0,0-.4981-1.9257l-.04-.0489a2.5137,2.5137,0,0,0-3.1348-.6718,80.9942,80.9942,0,0,1-8.0322,3.6152A22.7015,22.7015,0,0,1,11.3473,20.03a5.6582,5.6582,0,1,0-4.1628.3094c-.2019.0293-.4219.0446-.617.0788a6.7387,6.7387,0,0,0-5.584,6.6553V34.25a.25.25,0,0,0,.25.25H17.5744a.25.25,0,0,0,.25-.25V25.8711l.4882-.2393A84.5339,84.5339,0,0,0,29.338,19.2871,2.4926,2.4926,0,0,0,30.423,17.6132Z"/>
    <path class="cls-1" d="M18.0011,2.0332H31.3273a1,1,0,1,0,0-2H18.0011a1,1,0,0,0,0,2Z"/>
    <path class="cls-1" d="M18.0011,9.1972h6.6631a1,1,0,0,0,0-2H18.0011a1,1,0,0,0,0,2Z"/>
  </g>
</svg>
