<svg id="Layer_1" data-name="Layer 1" xmlns="http://www.w3.org/2000/svg" viewBox="0 0 44.6742 44.6742">
  <defs>
    <style>
      .cls-1 {
        fill: #0e2653;
      }
    </style>
  </defs>
  <title>Overview Lessons_v3</title>
  <g>
    <polygon class="cls-1" points="13.432 1.256 4.506 10.182 13.432 10.182 13.432 1.256"/>
    <path class="cls-1" d="M22.2448,22.2883a6.1552,6.1552,0,1,0,5.4743,8.9558,6.088,6.088,0,0,0,.681-2.8,6.15,6.15,0,0,0-6.1553-6.1553Z"/>
    <path class="cls-1" d="M40.9171.4321a1.49,1.49,0,0,0-1.06-.43l-22.59.06v12.44a1.5043,1.5043,0,0,1-1.5,1.5H3.317v29.17a1.4981,1.4981,0,0,0,1.5,1.5h35.04a1.4982,1.4982,0,0,0,1.5-1.5V1.5019A1.54,1.54,0,0,0,40.9171.4321Zm-4.3122,28.196c-.21.3435-5.2068,8.4976-14.239,8.4976-9.02,0-14.08-8.0266-14.29-8.3638a.9616.9616,0,0,1,.0127-1.0249c.2166-.3374,5.4488-8.2239,13.9082-8.2239,8.4212,0,14.3028,7.721,14.5508,8.0457A.9624.9624,0,0,1,36.6049,28.6281Z"/>
  </g>
</svg>
