<svg id="Layer_1" data-name="Layer 1" xmlns="http://www.w3.org/2000/svg" viewBox="0 0 44.6742 44.6742">
  <defs>
    <style>
      .cls-1 {
        fill: #0e2653;
      }
    </style>
  </defs>
  <title>Power Package_v3</title>
  <g>
    <path class="cls-1" d="M34.4156,34.7147v9.31a.45.45,0,0,1-.4437.4438H10.6266a.4423.4423,0,0,1-.4347-.4438v-9.31h9.2322l2.9274-3.9123,2.9412,3.9123Z"/>
    <path class="cls-1" d="M38.45,30.9947a.3548.3548,0,0,1-.3327.2034H27.0134l-3.221-4.3208-.1758-.2312a1.5948,1.5948,0,0,0-2.5516,0l-.1758.2312-3.2284,4.3291H6.5568a.3785.3785,0,0,1-.3327-.2034.3736.3736,0,0,1,.0275-.3883l2.0912-2.933L10.22,25.0652l.9891-1.3776H33.4726l.9986,1.3961L36.2648,27.58l2.1578,3.0266A.3737.3737,0,0,1,38.45,30.9947Z"/>
    <path class="cls-1" d="M32.5164,12.5665l-8.4691,7.6369H19.3692l1.6547-4.5395a.3965.3965,0,0,0-.2957-.5178l-7.905-1.6828a.3973.3973,0,0,1-.1756-.6842L26.8857.3068a.3965.3965,0,0,1,.6379.4253L24.38,9.7465a.383.383,0,0,0,.2867.5086l7.6647,1.6365A.392.392,0,0,1,32.5164,12.5665Z"/>
  </g>
</svg>
