<svg id="Layer_1" data-name="Layer 1" xmlns="http://www.w3.org/2000/svg" viewBox="0 0 44.6742 44.6742">
  <defs>
    <style>
      .cls-1 {
        fill: #0e2653;
      }
    </style>
  </defs>
  <title>Practice Questions_v3</title>
  <g>
    <path class="cls-1" d="M43.5168,11.6137a8,8,0,0,0-5.44-3.84,10.887,10.887,0,0,0-2.42-.27,9.2015,9.2015,0,0,0-5.36,1.58,8.4482,8.4482,0,0,0-3.22,7.15.6153.6153,0,0,0,.6.55h5.36a.6018.6018,0,0,0,.6-.6,1.6929,1.6929,0,0,1,1.43-1.79,2.1124,2.1124,0,0,1,.44-.04,1.7186,1.7186,0,0,1,1.64.92c.6,1.46-1.04,3.15-2.63,4.78l-.25.25-.48.51c-1.98,2.08-1.6,5.18-1.5,5.78a.5967.5967,0,0,0,.6.53h6.1a.6017.6017,0,0,0,.6-.6c0-1.93.2-2.59,2.21-4.79C43.9867,19.3337,45.5968,15.4138,43.5168,11.6137Z"/>
    <path class="cls-1" d="M35.8617,30.14a3.5151,3.5151,0,1,0,3.52,3.51A3.5143,3.5143,0,0,0,35.8617,30.14Z"/>
    <path class="cls-1" d="M25.4108,29.12H.7465a.5547.5547,0,0,0-.5547.5545v6.3921c0,.55.1694.7336.73.7336H25.6374a.5561.5561,0,0,0,.5544-.5544V29.8947C26.1918,29.3349,25.9606,29.12,25.4108,29.12Z"/>
  </g>
</svg>
