<svg id="Layer_1" data-name="Layer 1" xmlns="http://www.w3.org/2000/svg" viewBox="0 0 44.6742 44.6742">
  <defs>
    <style>
      .cls-1 {
        fill: #0e2653;
      }
    </style>
  </defs>
  <title>Progress_v3</title>
  <path class="cls-1" d="M43.8752,6.4694a1.4369,1.4369,0,0,0-1.4434-.0938L32.1789,11.3991a1.4549,1.4549,0,0,0-.1611,2.5205l3.647,2.4067L30.03,24.0275a4.6932,4.6932,0,0,0-4.4009.6894L21.4021,21.66a4.8209,4.8209,0,0,0,.2592-1.4976,4.8892,4.8892,0,1,0-9.7783,0,4.8411,4.8411,0,0,0,.7337,2.5435L6.98,29.0761A4.8868,4.8868,0,1,0,9.926,33.5582a4.8361,4.8361,0,0,0-.7041-2.4892l5.6614-6.3975a4.8316,4.8316,0,0,0,4.7663-.5757l4.2268,3.0567a4.8233,4.8233,0,0,0-.259,1.4966,4.89,4.89,0,0,0,9.7793,0,4.8438,4.8438,0,0,0-.94-2.857l5.7154-7.811,3.5137,2.3183A1.4553,1.4553,0,0,0,43.94,19.1588l.5849-11.4A1.44,1.44,0,0,0,43.8752,6.4694Z"/>
</svg>
