<svg id="Layer_1" data-name="Layer 1" xmlns="http://www.w3.org/2000/svg" viewBox="0 0 44.6742 44.6742">
  <defs>
    <style>
      .cls-1 {
        fill: #0e2653;
        stroke: #0e2653;
        stroke-linecap: round;
        stroke-linejoin: round;
        stroke-width: 0.5px;
      }
    </style>
  </defs>
  <title>Settings_v3</title>
  <path class="cls-1" d="M39.1369,23.1869a15.93,15.93,0,0,0-.2-3.59l4.83-3.71-2.96-6.2-5.92,1.44a16.3055,16.3055,0,0,0-2.76-2.48l.79-6.04-6.49-2.28-3.16,5.2a16.2573,16.2573,0,0,0-3.76.22l-3.73-4.82-6.18,3,1.47,5.91a16.2477,16.2477,0,0,0-2.46,2.77l-6.06-.75-2.24,6.49,5.22,3.14a15.942,15.942,0,0,0,.21,3.59l-4.84,3.72,2.97,6.19,5.92-1.43a16.29,16.29,0,0,0,2.76,2.47l-.79,6.05,6.49,2.27,3.16-5.2a16.1973,16.1973,0,0,0,3.75-.22l3.73,4.81,6.18-2.99-1.46-5.91a16.7012,16.7012,0,0,0,2.46-2.77l6.04.76,2.26-6.5Zm-9.85,1.59a7.3676,7.3676,0,1,1-4.51-9.38A7.375,7.375,0,0,1,29.287,24.777Z"/>
</svg>
