<svg id="Layer_1" data-name="Layer 1" xmlns="http://www.w3.org/2000/svg" viewBox="0 0 44.6742 44.6742">
  <defs>
    <style>
      .cls-1 {
        fill: #0e2653;
      }
    </style>
  </defs>
  <title>Shop_v3</title>
  <g>
    <path class="cls-1" d="M44.3185,11.5011c0-.01-.01-.02-.01-.0295l-3.0329-9.64H3.2489L.1669,11.6191A6.2231,6.2231,0,0,0-.01,13.1059a6.7949,6.7949,0,0,0,3.0918,5.7112,6.4672,6.4672,0,0,0,2.57.9846,6.6627,6.6627,0,0,0,7.552-5.1,1.32,1.32,0,0,1,1.27-1.0044h.01a1.2938,1.2938,0,0,1,1.2605.9944,6.7368,6.7368,0,0,0,6.5183,5.1792,6.6531,6.6531,0,0,0,6.5183-5.1692,1.3023,1.3023,0,0,1,2.5307-.02,6.7345,6.7345,0,0,0,7.1682,5.16,6.2827,6.2827,0,0,0,2.9146-1.0144,6.7476,6.7476,0,0,0,3.1309-5.8486v-.02A6.4809,6.4809,0,0,0,44.3185,11.5011Z"/>
    <path class="cls-1" d="M40.36,21.6921c-.1477.04-.2857.0788-.4334.1184a9.0875,9.0875,0,0,1-1.26.2065,8.934,8.934,0,0,1-8.606-4.5786,8.8942,8.8942,0,0,1-15.5869.02c-.0984.1772-.1968.3445-.3052.5119a8.9106,8.9106,0,0,1-1.0928,1.3985c-.1379.1377-.2758.2754-.4235.4035a9.2386,9.2386,0,0,1-.9158.7286c-.1675.1084-.3347.2067-.5022.3151a9.4917,9.4917,0,0,1-1.0437.5318,9.0787,9.0787,0,0,1-4.8643.61,8.2857,8.2857,0,0,1-1.7426-.4626V41.7494H17.4474V29.1657a.76.76,0,0,1,.7285-.7878h8.4583a.76.76,0,0,1,.7287.7878V41.7494H40.9018V21.505c-.1775.0691-.3545.1282-.5318.1871Z"/>
  </g>
</svg>
