<svg id="Layer_1" data-name="Layer 1" xmlns="http://www.w3.org/2000/svg" viewBox="0 0 44.6742 44.6742">
  <defs>
    <style>
      .cls-1 {
        fill: #0e2653;
      }
    </style>
  </defs>
  <title>Show Time Package_v3</title>
  <g>
    <path class="cls-1" d="M34.9977,34.2921v9.759a.4718.4718,0,0,1-.4652.4652h-24.47a.4637.4637,0,0,1-.4557-.4652v-9.759h9.6771l3.0685-4.1009,3.0829,4.1009Z"/>
    <path class="cls-1" d="M32.7034,11.2628a1.7573,1.7573,0,0,1-.8721,1.5214L21.074,19.0352H13.1079V1.9109A1.75,1.75,0,0,1,15.7438.3991L31.8313,9.7509A1.7186,1.7186,0,0,1,32.7034,11.2628Z"/>
    <path class="cls-1" d="M39.2266,30.3928a.3721.3721,0,0,1-.3488.2132H27.2387l-3.3762-4.5291-.1843-.2423a1.6716,1.6716,0,0,0-2.6745,0l-.1843.2423-3.3839,4.5377H5.7964a.3967.3967,0,0,1-.3488-.2132.3915.3915,0,0,1,.0289-.4069L7.6684,26.92,9.636,24.1775l1.0368-1.444H34.0092l1.0467,1.4634,1.88,2.6166,2.2618,3.1724A.3915.3915,0,0,1,39.2266,30.3928Z"/>
  </g>
</svg>
