<svg id="Layer_1" data-name="Layer 1" xmlns="http://www.w3.org/2000/svg" viewBox="0 0 44.6742 44.6742">
  <defs>
    <style>
      .cls-1 {
        fill: #0e2653;
      }
    </style>
  </defs>
  <title>Silver_v3</title>
  <g>
    <path class="cls-1" d="M43.9139,17.7421l-6.96,6.74-1.12-.16-2.47-5.16a4.49,4.49,0,0,0-6.07-2.02.4165.4165,0,0,0-.1.04,2.1421,2.1421,0,0,0-.69.46c-.06.05-.12.11-.18.17a4.0472,4.0472,0,0,0-1.04,1.37l-2.46,5.14-5.54.78a4.0961,4.0961,0,0,0-1.04.28,1.0438,1.0438,0,0,0-.16.06,2.3475,2.3475,0,0,0-.91.54,4.4772,4.4772,0,0,0-.37,6.78l4,3.88-.24,1.45-8.84,4.85a.9835.9835,0,0,1-.4.1.7967.7967,0,0,1-.47-.15.8287.8287,0,0,1-.34-.8l2.44-14.48-10.19-9.87a.8251.8251,0,0,1,.46-1.41l14.13-1.98,6.25-13.06a.8064.8064,0,0,1,.73-.47.8326.8326,0,0,1,.74.47l6.24,13.06,14.14,1.98a.8424.8424,0,0,1,.66.56A.8274.8274,0,0,1,43.9139,17.7421Z"/>
    <path class="cls-1" d="M41.224,30.0121l-5.46,5.29,1.31,7.75a.67.67,0,0,1-.27.67.7324.7324,0,0,1-.4.13.6223.6223,0,0,1-.32-.09l-6.76-3.69-6.75,3.69a.6577.6577,0,0,1-.33.09.7264.7264,0,0,1-.39-.13.67.67,0,0,1-.27-.67l1.3-7.75-5.45-5.29a.6671.6671,0,0,1,.38-1.15l7.56-1.06,3.34-7a.6652.6652,0,0,1,.61-.35.6451.6451,0,0,1,.61.35l3.35,7,7.56,1.06a.6671.6671,0,0,1,.38,1.15Z"/>
  </g>
</svg>
