<svg id="Layer_1" data-name="Layer 1" xmlns="http://www.w3.org/2000/svg" viewBox="0 0 44.6742 44.6742">
  <defs>
    <style>
      .cls-1 {
        fill: #0e2653;
      }
    </style>
  </defs>
  <title>Single Tutorial Bundle_v3</title>
  <g>
    <path class="cls-1" d="M28.2342,12.8071A15.8906,15.8906,0,1,0,44.1249,28.6977,15.9083,15.9083,0,0,0,28.2342,12.8071Zm4.4092,12.5468a1.25,1.25,0,0,1-1.43-2.0508l3.8457-2.68a1.25,1.25,0,0,1,1.9649,1.0253V34.9321a1.25,1.25,0,1,1-2.5,0V24.0434Zm-5.0351,8.0684a1.25,1.25,0,1,1-2,1.5l-2.6124-3.4832-2.6123,3.4832a1.25,1.25,0,0,1-2-1.5l3.05-4.0664-3.05-4.0664a1.25,1.25,0,1,1,2-1.5l2.6123,3.4831L25.6083,23.79a1.25,1.25,0,0,1,2,1.5l-3.05,4.0664Z"/>
    <path class="cls-1" d="M18.0389,9.9975a1.5949,1.5949,0,0,0-.8-1.3906L2.9657.3041A1.6092,1.6092,0,0,0,.55,1.6967V18.2992A1.61,1.61,0,0,0,2.9676,19.69L17.24,11.3881A1.5938,1.5938,0,0,0,18.0389,9.9975Z"/>
  </g>
</svg>
