<svg id="Layer_1" data-name="Layer 1" xmlns="http://www.w3.org/2000/svg" viewBox="0 0 44.6742 44.6742">
  <defs>
    <style>
      .cls-1 {
        fill: none;
      }

      .cls-2 {
        fill: #0e2653;
      }
    </style>
  </defs>
  <title>Skill Building_v3</title>
  <g>
    <rect class="cls-1" x="25.207" y="32.4303" width="17.3818" height="9.0732"/>
    <path class="cls-2" d="M16.3671,15.98,15.0829,23.6a.4192.4192,0,0,0,.6143.4375L22.34,20.403l6.6435,3.6347a.4218.4218,0,0,0,.2.0518.42.42,0,0,0,.4131-.4893l-1.2842-7.62,5.3594-5.1914a.4189.4189,0,0,0-.2314-.7168L26.0019,9.028,22.7177,2.1588a.4342.4342,0,0,0-.7559.001L18.6777,9.028,11.24,10.0719a.4187.4187,0,0,0-.2334.7158Z"/>
    <path class="cls-2" d="M43.31,30.43H1.3642A1.2706,1.2706,0,0,0,.0859,31.69V42.2438a1.2706,1.2706,0,0,0,1.2783,1.26H43.31a1.2714,1.2714,0,0,0,1.2793-1.26V31.69A1.2715,1.2715,0,0,0,43.31,30.43Zm-.7207,11.0732H25.207V32.43H42.5888Z"/>
  </g>
</svg>
