<svg id="Layer_1" data-name="Layer 1" xmlns="http://www.w3.org/2000/svg" viewBox="0 0 44.6742 44.6742">
  <defs>
    <style>
      .cls-1 {
        fill: #0e2653;
      }
    </style>
  </defs>
  <title>Speaking Assessment_v3</title>
  <path class="cls-1" d="M41.5349,1.4472c-5.6409,0-38.1326-.01-38.1326-.01a.9963.9963,0,0,0-1,1v20.8h.02c-.06.63-.04,7.2-.02,9.73a.9857.9857,0,0,0,.99.99l7.13.02v8.26a1.0027,1.0027,0,0,0,.62.92.8414.8414,0,0,0,.38.08,1.0061,1.0061,0,0,0,.71-.29l8.96-8.97s15.8389-.0105,20.3416-.01a.7589.7589,0,0,0,.758-.7644V2.2116A.7582.7582,0,0,0,41.5349,1.4472Zm-8.8467,11.98-11.4,12.7817a.8691.8691,0,0,1-1.2566.0718l-7.2883-6.4895a1.0641,1.0641,0,0,1-.09-1.499l2.9172-3.2673a1.0635,1.0635,0,0,1,1.4988-.09L20.041,17.592a.1605.1605,0,0,0,.2334-.0178L27.841,9.1008a1.0532,1.0532,0,0,1,1.49-.09l3.2673,2.9172A1.0634,1.0634,0,0,1,32.6882,13.4272Z"/>
</svg>
