<svg id="Layer_1" data-name="Layer 1" xmlns="http://www.w3.org/2000/svg" viewBox="0 0 44.6742 44.6742">
  <defs>
    <style>
      .cls-1 {
        fill: #0e2653;
      }
    </style>
  </defs>
  <title>Speaking Intensive_v3</title>
  <g>
    <path class="cls-1" d="M35.6924,13.8322V30.797a1.1946,1.1946,0,0,1-1.1911,1.1911H20.1744l-5.3272,5.3332a.5994.5994,0,0,1-.4221.1725.4978.4978,0,0,1-.226-.0476.5962.5962,0,0,1-.3686-.547V31.9881H10.3948c-1.0642,0-1.3922-.5108-1.3922-1.5751-.0238-2.89-.0357-4.3407.0119-4.8105H9.0026v-11.77a1.1911,1.1911,0,0,1,1.1911-1.1911H34.5013A1.1946,1.1946,0,0,1,35.6924,13.8322Z"/>
    <g>
      <path class="cls-1" d="M36.3378,7.9148V.4829A.4425.4425,0,0,1,37.0933.17l7.4318,7.4318a.4425.4425,0,0,1-.3129.7555H36.78A.4425.4425,0,0,1,36.3378,7.9148Z"/>
      <path class="cls-1" d="M36.78,36.3168h7.4319a.4426.4426,0,0,1,.3129.7556l-7.4318,7.4318a.4426.4426,0,0,1-.7555-.313V36.7594A.4426.4426,0,0,1,36.78,36.3168Z"/>
      <path class="cls-1" d="M8.3364,36.7594v7.4318a.4426.4426,0,0,1-.7555.313L.1491,37.0724a.4426.4426,0,0,1,.3129-.7556H7.8938A.4426.4426,0,0,1,8.3364,36.7594Z"/>
      <path class="cls-1" d="M7.8938,8.3573H.462a.4425.4425,0,0,1-.3129-.7555L7.5809.17a.4425.4425,0,0,1,.7555.3129V7.9148A.4425.4425,0,0,1,7.8938,8.3573Z"/>
    </g>
  </g>
</svg>
