<svg id="Layer_1" data-name="Layer 1" xmlns="http://www.w3.org/2000/svg" viewBox="0 0 44.6742 44.6742">
  <defs>
    <style>
      .cls-1 {
        fill: #0e2653;
      }
    </style>
  </defs>
  <title>Spelling_v3</title>
  <g>
    <path class="cls-1" d="M43.112,22.3862a6.8478,6.8478,0,0,0-1.0549-1.1084,5.9575,5.9575,0,0,0,.4739-.733,7.3939,7.3939,0,0,0,.7153-1.8059,8.01,8.01,0,0,0,.2144-1.8505,7.4538,7.4538,0,0,0-.6079-3.0484A6.3493,6.3493,0,0,0,40.94,11.4264a7.8829,7.8829,0,0,0-2.9412-1.3947,9.1887,9.1887,0,0,0-2.9587-.42H27.5842a2.661,2.661,0,0,0-2.655,2.6548V32.1213a2.6551,2.6551,0,0,0,2.655,2.655l7.062-.0178c4.3448,0,5.5786-.6526,6.1863-.93a3.0663,3.0663,0,0,0,.3308-.1878,7.0135,7.0135,0,0,0,1.0816-.84,7.23,7.23,0,0,0,1.7524-2.61,8.5572,8.5572,0,0,0,.572-3.1377A7.5983,7.5983,0,0,0,43.112,22.3862ZM31.42,15.7973a1.1,1.1,0,0,1,1.0986-1.0986H34.19a3.833,3.833,0,0,1,2.3965.64,2.2827,2.2827,0,0,1,.9111,1.8984,2.2333,2.2333,0,0,1-.9824,1.93,3.8832,3.8832,0,0,1-2.2354.6182H32.5183a1.1,1.1,0,0,1-1.0986-1.1Zm6.0566,12.6611a3.838,3.838,0,0,1-2.24.6143H32.5183a1.1,1.1,0,0,1-1.0986-1.1v-2.878a1.1,1.1,0,0,1,1.0986-1.1H35.156a3.8283,3.8283,0,0,1,2.3916.6436,2.2609,2.2609,0,0,1,.9062,1.8955A2.2247,2.2247,0,0,1,37.4763,28.4584Z"/>
    <path class="cls-1" d="M16.6064,11.3459A2.67,2.67,0,0,0,14.112,9.6117H10.1431a2.6694,2.6694,0,0,0-2.4942,1.7342l-7.384,20.15A2.654,2.654,0,0,0,2.759,35.0624H4.6633A2.632,2.632,0,0,0,7.1841,33.23l.6435-1.9756h8.5017l.6526,1.9844a2.6433,2.6433,0,0,0,2.5208,1.8237h2.02a2.6508,2.6508,0,0,0,2.4941-3.5669Zm-2.0432,13.65a1.0783,1.0783,0,0,1-.88.4473H10.59a1.0994,1.0994,0,0,1-1.0479-1.4395l2.083-6.42a.5636.5636,0,0,1,1.0049-.001L14.7224,24A1.1,1.1,0,0,1,14.5632,24.9955Z"/>
  </g>
</svg>
