<svg id="Layer_1" data-name="Layer 1" xmlns="http://www.w3.org/2000/svg" viewBox="0 0 44.6742 44.6742">
  <defs>
    <style>
      .cls-1 {
        fill: none;
      }

      .cls-2 {
        fill: #0e2653;
      }
    </style>
  </defs>
  <title>Study Plan_v3</title>
  <g>
    <path class="cls-1" d="M36.2306,30.59l-.2741-.1369-3.8941-2.0156V20.9624a1.4677,1.4677,0,1,0-2.9353,0v8.3654a1.4671,1.4671,0,0,0,.7928,1.3111l4.9606,2.5534a1.3761,1.3761,0,0,0,.6749.1665,1.8026,1.8026,0,0,0,.4011-.0488,1.4739,1.4739,0,0,0,.2741-2.72Z"/>
    <path class="cls-2" d="M12.9831,33.4746l-.0088-.0381H3.5134V9.9853H35.9069v2.0518l.0352.0107a18.006,18.006,0,0,1,4,1.7959l.0761.0459V1.2656H.0085V37.7431H14.5817l-.0381-.0732A17.7373,17.7373,0,0,1,12.9831,33.4746Z"/>
    <rect class="cls-2" x="6.4323" y="13.7265" width="6.666" height="6.666"/>
    <path class="cls-2" d="M21.2761,13.8242l.1543-.0928H16.3776V18.16l.0889-.1113A18.0487,18.0487,0,0,1,21.2761,13.8242Z"/>
    <path class="cls-2" d="M13.1315,23.5253H6.4665v6.6641h6.06l-.002-.0517c-.01-.2588-.02-.5264-.02-.8a17.964,17.964,0,0,1,.625-4.7226Z"/>
    <path class="cls-2" d="M39.9682,18.9077a13.8053,13.8053,0,0,0-4.0117-2.5342A14.0273,14.0273,0,0,0,16.5644,29.3376a14.1888,14.1888,0,0,0,.6164,4.1484A14.0308,14.0308,0,1,0,39.9682,18.9077ZM36.8569,32.5664a1.4659,1.4659,0,0,1-.9.7436,1.8026,1.8026,0,0,1-.4011.0488,1.3761,1.3761,0,0,1-.6749-.1665L29.92,30.6389a1.4671,1.4671,0,0,1-.7928-1.3111V20.9624a1.4677,1.4677,0,1,1,2.9353,0v7.4751l3.8941,2.0156.2741.1369A1.4693,1.4693,0,0,1,36.8569,32.5664Z"/>
  </g>
</svg>
