<svg id="Layer_1" data-name="Layer 1" xmlns="http://www.w3.org/2000/svg" viewBox="0 0 44.6742 44.6742">
  <defs>
    <style>
      .cls-1 {
        fill: #0e2653;
      }
    </style>
  </defs>
  <title>Study Pathway_v3</title>
  <path class="cls-1" d="M37.801.6842a5.509,5.509,0,0,0-5.35,4.2315h-9.585a1.5,1.5,0,0,0-1.5,1.5v8.3706L15.5607,24.652a1.4729,1.4729,0,0,0,1.27,2.22H21.36V36.9869H12.164a5.503,5.503,0,1,0,0,3H22.86a1.5,1.5,0,0,0,1.5-1.5V26.8717h4.53a1.472,1.472,0,0,0,1.2686-2.22l-5.792-9.84V7.9157h8.2129A5.5018,5.5018,0,1,0,37.801.6842Z"/>
</svg>
