<svg id="Layer_1" data-name="Layer 1" xmlns="http://www.w3.org/2000/svg" viewBox="0 0 44.6742 44.6742">
  <defs>
    <style>
      .cls-1 {
        fill: #0e2653;
      }
    </style>
  </defs>
  <title>Support_v3</title>
  <path class="cls-1" d="M40.0724,24.3373a6.7259,6.7259,0,0,0-.4292-1.0107,1.4968,1.4968,0,0,0,.1518-.3916,22.3857,22.3857,0,0,0,.5157-4.792C40.3107,7.56,32.92.1684,22.337.1684S4.3634,7.56,4.3634,18.143a22.4537,22.4537,0,0,0,.5234,4.831,1.4665,1.4665,0,0,0,.1446.3516,6.7161,6.7161,0,0,0-.43,1.0117,6.6136,6.6136,0,0,0,.4023,5.0772L6.297,31.95a6.657,6.657,0,0,0,8.9512,2.9043l.39-.1982.001-.001A3.3988,3.3988,0,0,0,17.12,30.0893l-4.2568-8.3438A3.3939,3.3939,0,0,0,8.297,20.2641l-.3887.1992c-.1289.0657-.25.1411-.3737.2141a19.57,19.57,0,0,1-.1712-2.5344c0-8.8164,6.1572-14.9746,14.9736-14.9746S37.3107,9.3266,37.3107,18.143a19.4853,19.4853,0,0,1-.1826,2.5273c-.1192-.07-.2369-.1435-.3614-.207l-.3906-.1992a3.3931,3.3931,0,0,0-4.5654,1.4814l-4.2569,8.3438a3.3989,3.3989,0,0,0,1.4815,4.5654l.001.001.3886.1973a6.6074,6.6074,0,0,0,3.0127.7265,6.692,6.692,0,0,0,3.9414-1.3013v1.33a4.145,4.145,0,0,1-4.1406,4.14H26.9117a2.9473,2.9473,0,0,0-2.4575-1.3233H19.0519a2.9533,2.9533,0,0,0-2.95,2.95v.2188a2.9533,2.9533,0,0,0,2.95,2.95h5.4023a2.9541,2.9541,0,0,0,2.7144-1.7959h5.07a7.1483,7.1483,0,0,0,7.1406-7.14V31a1.4835,1.4835,0,0,0-.1706-.6809l.4616-.905A6.6136,6.6136,0,0,0,40.0724,24.3373Z"/>
</svg>
