<svg id="Layer_1" data-name="Layer 1" xmlns="http://www.w3.org/2000/svg" viewBox="0 0 44.6742 44.6742">
  <defs>
    <style>
      .cls-1 {
        fill: none;
      }

      .cls-2 {
        fill: #0e2653;
      }
    </style>
  </defs>
  <title>Teacher Meetings_v3</title>
  <g>
    <path class="cls-1" d="M2.1789,8.8276V29.7163H5.7053v-.46a6.2095,6.2095,0,0,1,5.4954-6.189,5.418,5.418,0,1,1,6.1367-.0085,6.25,6.25,0,0,1,5.2412,4.2644,10.3226,10.3226,0,0,1,2.6931-1.981,9.2779,9.2779,0,0,1,1.5977-11.9279V8.8276Z"/>
    <path class="cls-2" d="M22.5786,27.3232a6.25,6.25,0,0,0-5.2412-4.2644,5.4219,5.4219,0,1,0-6.1367.0085,6.2095,6.2095,0,0,0-5.4954,6.189v.46H2.1789V8.8276H26.8694v4.5867a9.3264,9.3264,0,0,1,2-1.386V7.8276a1,1,0,0,0-1-1H1.1789a1,1,0,0,0-1,1V30.7163a1,1,0,0,0,1,1h18.792A10.334,10.334,0,0,1,22.5786,27.3232Z"/>
    <path class="cls-2" d="M36.698,26.4423a7.119,7.119,0,1,0-7.1761.0052,8.2322,8.2322,0,0,0-7.7727,8.2063v1.7509a.5.5,0,0,0,.5.5H44.0549a.5.5,0,0,0,.5-.5V34.6538a8.2127,8.2127,0,0,0-7.8569-8.2115Z"/>
  </g>
</svg>
