<svg id="Layer_1" data-name="Layer 1" xmlns="http://www.w3.org/2000/svg" viewBox="0 0 44.6742 44.6742">
  <defs>
    <style>
      .cls-1 {
        fill: #0e2653;
      }
    </style>
  </defs>
  <title>Triple Tutorial Bundle_v3</title>
  <g>
    <path class="cls-1" d="M28.2344,12.8071A15.8906,15.8906,0,1,0,44.125,28.6977,15.9091,15.9091,0,0,0,28.2344,12.8071ZM39.417,31.3549a4.6815,4.6815,0,0,1-4.8965,4.42A5.0222,5.0222,0,0,1,30.39,33.7319a1.25,1.25,0,0,1,2.0411-1.4434,2.56,2.56,0,0,0,2.09.9863,2.2009,2.2009,0,0,0,2.3965-1.92,2.2009,2.2009,0,0,0-2.3965-1.92h-.9219a1.25,1.25,0,0,1,0-2.5h.9219a2.2,2.2,0,0,0,2.3965-1.919,2.2009,2.2009,0,0,0-2.3965-1.92,2.56,2.56,0,0,0-2.09.9863A1.25,1.25,0,0,1,30.39,22.6391a5.0223,5.0223,0,0,1,4.1309-2.043,4.6815,4.6815,0,0,1,4.8965,4.42A4.2059,4.2059,0,0,1,37.92,28.185,4.2074,4.2074,0,0,1,39.417,31.3549Zm-11.81,2.0674a1.25,1.25,0,1,1-2,1.5l-2.6118-3.4829-2.6118,3.4829a1.25,1.25,0,0,1-2-1.5l3.0493-4.0664L18.3838,25.29a1.25,1.25,0,1,1,2-1.5l2.6118,3.4829L25.6074,23.79a1.25,1.25,0,0,1,2,1.5l-3.0493,4.0664Z"/>
    <path class="cls-1" d="M18.0391,9.9975a1.5951,1.5951,0,0,0-.8-1.3906L2.9658.3041A1.6092,1.6092,0,0,0,.55,1.6967V18.2992A1.61,1.61,0,0,0,2.9678,19.69L17.24,11.3881A1.5939,1.5939,0,0,0,18.0391,9.9975Z"/>
  </g>
</svg>
