<svg id="Layer_1" data-name="Layer 1" xmlns="http://www.w3.org/2000/svg" viewBox="0 0 44.6742 44.6742">
  <defs>
    <style>
      .cls-1 {
        fill: #0e2653;
      }
    </style>
  </defs>
  <title>Writing Assessment_v3</title>
  <g>
    <path class="cls-1" d="M9.4625,36.0305l-5.23,3.41a.757.757,0,0,0,.01,1.27l5.22,3.28a1.2331,1.2331,0,0,0,.57.18h.06v-8.33h-.06A1.1689,1.1689,0,0,0,9.4625,36.0305Z"/>
    <path class="cls-1" d="M37.8524,35.83l-23.99.01v8.33l23.99-.01a2.477,2.477,0,0,0,2.03-1.2,5.0334,5.0334,0,0,0,.81-2.88,5.5487,5.5487,0,0,0-.84-3.01A2.4813,2.4813,0,0,0,37.8524,35.83Z"/>
    <path class="cls-1" d="M36.0973,32.0239a18.5885,18.5885,0,0,0,5.02-12.74,18.78,18.78,0,1,0-32.55,12.74Zm-23.5928-13.34,2.917-3.2674a1.0641,1.0641,0,0,1,1.499-.09l2.9712,2.657a.16.16,0,0,0,.2332-.0181l7.5666-8.4731a1.0531,1.0531,0,0,1,1.49-.09l3.267,2.917a1.0633,1.0633,0,0,1,.09,1.499L21.1393,26.6005a.87.87,0,0,1-1.2569.0718l-7.2881-6.49A1.0639,1.0639,0,0,1,12.5045,18.6836Z"/>
  </g>
</svg>
