<svg id="Layer_1" data-name="Layer 1" xmlns="http://www.w3.org/2000/svg" viewBox="0 0 44.6742 44.6742">
  <defs>
    <style>
      .cls-1 {
        fill: #0e2653;
      }
    </style>
  </defs>
  <title>Writing Intensive_v3</title>
  <g>
    <path class="cls-1" d="M16.9753,36.3281a.0588.0588,0,0,0,.01.0393.4692.4692,0,0,0,.0593.1482,1.104,1.104,0,0,0,.0591.1089L21.5568,44.08a1,1,0,0,0,.8494.4841h.01a1.01,1.01,0,0,0,.8491-.4939l4.2954-7.4258a.2142.2142,0,0,0,.05-.0789.8611.8611,0,0,0,.0986-.237.5328.5328,0,0,0,.0393-.2173H16.9357A.53.53,0,0,0,16.9753,36.3281Z"/>
    <path class="cls-1" d="M27.7275,5.5122A5.376,5.376,0,0,0,22.3952.1106h-.01a5.4371,5.4371,0,0,0-5.461,5.4113l.01,26.83H27.7473Z"/>
    <path class="cls-1" d="M36.71,8.43h7.38a.4444.4444,0,0,0,.3142-.7585l-7.38-7.38a.4444.4444,0,0,0-.7585.3142v7.38A.4444.4444,0,0,0,36.71,8.43Z"/>
    <path class="cls-1" d="M44.09,36.2451H36.71a.4444.4444,0,0,0-.4443.4443v7.38a.4443.4443,0,0,0,.7585.3142l7.38-7.3794A.4446.4446,0,0,0,44.09,36.2451Z"/>
    <path class="cls-1" d="M7.9643,36.2451H.5847a.4444.4444,0,0,0-.3142.7588l7.38,7.3794a.4443.4443,0,0,0,.7586-.3142v-7.38A.4444.4444,0,0,0,7.9643,36.2451Z"/>
    <path class="cls-1" d="M7.65.2917l-7.38,7.38A.4442.4442,0,0,0,.5847,8.43h7.38a.4444.4444,0,0,0,.4444-.4443V.6059A.4445.4445,0,0,0,7.65.2917Z"/>
  </g>
</svg>
